<?xml version="1.0" encoding="utf-8" standalone="no"?>
<!DOCTYPE svg PUBLIC "-//W3C//DTD SVG 1.1//EN"
  "http://www.w3.org/Graphics/SVG/1.1/DTD/svg11.dtd">
<svg xmlns:xlink="http://www.w3.org/1999/xlink" width="460.8pt" height="691.2pt" viewBox="0 0 460.8 691.2" xmlns="http://www.w3.org/2000/svg" version="1.1">
 <metadata>
  <rdf:RDF xmlns:dc="http://purl.org/dc/elements/1.1/" xmlns:cc="http://creativecommons.org/ns#" xmlns:rdf="http://www.w3.org/1999/02/22-rdf-syntax-ns#">
   <cc:Work>
    <dc:type rdf:resource="http://purl.org/dc/dcmitype/StillImage"/>
    <dc:date>2025-02-02T19:00:27.072409</dc:date>
    <dc:format>image/svg+xml</dc:format>
    <dc:creator>
     <cc:Agent>
      <dc:title>Matplotlib v3.6.3, https://matplotlib.org/</dc:title>
     </cc:Agent>
    </dc:creator>
   </cc:Work>
  </rdf:RDF>
 </metadata>
 <defs>
  <style type="text/css">*{stroke-linejoin: round; stroke-linecap: butt}</style>
 </defs>
 <g id="figure_1">
  <g id="patch_1">
   <path d="M 0 691.2 
L 460.8 691.2 
L 460.8 0 
L 0 0 
z
" style="fill: #ffffff"/>
  </g>
  <g id="axes_1">
   <g id="patch_2">
    <path d="M 57.6 239.480471 
L 414.72 239.480471 
L 414.72 82.944 
L 57.6 82.944 
z
" style="fill: #ffffff"/>
   </g>
   <g id="matplotlib.axis_1">
    <g id="xtick_1">
     <g id="line2d_1">
      <defs>
       <path id="m018567a269" d="M 0 0 
L 0 3.5 
" style="stroke: #000000; stroke-width: 0.8"/>
      </defs>
      <g>
       <use xlink:href="#m018567a269" x="108.617143" y="239.480471" style="stroke: #000000; stroke-width: 0.8"/>
      </g>
     </g>
     <g id="text_1">
      <!-- 0.5 -->
      <g transform="translate(100.66558 254.078908) scale(0.1 -0.1)">
       <defs>
        <path id="DejaVuSans-30" d="M 2034 4250 
Q 1547 4250 1301 3770 
Q 1056 3291 1056 2328 
Q 1056 1369 1301 889 
Q 1547 409 2034 409 
Q 2525 409 2770 889 
Q 3016 1369 3016 2328 
Q 3016 3291 2770 3770 
Q 2525 4250 2034 4250 
z
M 2034 4750 
Q 2819 4750 3233 4129 
Q 3647 3509 3647 2328 
Q 3647 1150 3233 529 
Q 2819 -91 2034 -91 
Q 1250 -91 836 529 
Q 422 1150 422 2328 
Q 422 3509 836 4129 
Q 1250 4750 2034 4750 
z
" transform="scale(0.015625)"/>
        <path id="DejaVuSans-2e" d="M 684 794 
L 1344 794 
L 1344 0 
L 684 0 
L 684 794 
z
" transform="scale(0.015625)"/>
        <path id="DejaVuSans-35" d="M 691 4666 
L 3169 4666 
L 3169 4134 
L 1269 4134 
L 1269 2991 
Q 1406 3038 1543 3061 
Q 1681 3084 1819 3084 
Q 2600 3084 3056 2656 
Q 3513 2228 3513 1497 
Q 3513 744 3044 326 
Q 2575 -91 1722 -91 
Q 1428 -91 1123 -41 
Q 819 9 494 109 
L 494 744 
Q 775 591 1075 516 
Q 1375 441 1709 441 
Q 2250 441 2565 725 
Q 2881 1009 2881 1497 
Q 2881 1984 2565 2268 
Q 2250 2553 1709 2553 
Q 1456 2553 1204 2497 
Q 953 2441 691 2322 
L 691 4666 
z
" transform="scale(0.015625)"/>
       </defs>
       <use xlink:href="#DejaVuSans-30"/>
       <use xlink:href="#DejaVuSans-2e" x="63.623047"/>
       <use xlink:href="#DejaVuSans-35" x="95.410156"/>
      </g>
     </g>
    </g>
    <g id="xtick_2">
     <g id="line2d_2">
      <g>
       <use xlink:href="#m018567a269" x="166.591169" y="239.480471" style="stroke: #000000; stroke-width: 0.8"/>
      </g>
     </g>
     <g id="text_2">
      <!-- 1.0 -->
      <g transform="translate(158.639606 254.078908) scale(0.1 -0.1)">
       <defs>
        <path id="DejaVuSans-31" d="M 794 531 
L 1825 531 
L 1825 4091 
L 703 3866 
L 703 4441 
L 1819 4666 
L 2450 4666 
L 2450 531 
L 3481 531 
L 3481 0 
L 794 0 
L 794 531 
z
" transform="scale(0.015625)"/>
       </defs>
       <use xlink:href="#DejaVuSans-31"/>
       <use xlink:href="#DejaVuSans-2e" x="63.623047"/>
       <use xlink:href="#DejaVuSans-30" x="95.410156"/>
      </g>
     </g>
    </g>
    <g id="xtick_3">
     <g id="line2d_3">
      <g>
       <use xlink:href="#m018567a269" x="224.565195" y="239.480471" style="stroke: #000000; stroke-width: 0.8"/>
      </g>
     </g>
     <g id="text_3">
      <!-- 1.5 -->
      <g transform="translate(216.613632 254.078908) scale(0.1 -0.1)">
       <use xlink:href="#DejaVuSans-31"/>
       <use xlink:href="#DejaVuSans-2e" x="63.623047"/>
       <use xlink:href="#DejaVuSans-35" x="95.410156"/>
      </g>
     </g>
    </g>
    <g id="xtick_4">
     <g id="line2d_4">
      <g>
       <use xlink:href="#m018567a269" x="282.539221" y="239.480471" style="stroke: #000000; stroke-width: 0.8"/>
      </g>
     </g>
     <g id="text_4">
      <!-- 2.0 -->
      <g transform="translate(274.587658 254.078908) scale(0.1 -0.1)">
       <defs>
        <path id="DejaVuSans-32" d="M 1228 531 
L 3431 531 
L 3431 0 
L 469 0 
L 469 531 
Q 828 903 1448 1529 
Q 2069 2156 2228 2338 
Q 2531 2678 2651 2914 
Q 2772 3150 2772 3378 
Q 2772 3750 2511 3984 
Q 2250 4219 1831 4219 
Q 1534 4219 1204 4116 
Q 875 4013 500 3803 
L 500 4441 
Q 881 4594 1212 4672 
Q 1544 4750 1819 4750 
Q 2544 4750 2975 4387 
Q 3406 4025 3406 3419 
Q 3406 3131 3298 2873 
Q 3191 2616 2906 2266 
Q 2828 2175 2409 1742 
Q 1991 1309 1228 531 
z
" transform="scale(0.015625)"/>
       </defs>
       <use xlink:href="#DejaVuSans-32"/>
       <use xlink:href="#DejaVuSans-2e" x="63.623047"/>
       <use xlink:href="#DejaVuSans-30" x="95.410156"/>
      </g>
     </g>
    </g>
    <g id="xtick_5">
     <g id="line2d_5">
      <g>
       <use xlink:href="#m018567a269" x="340.513247" y="239.480471" style="stroke: #000000; stroke-width: 0.8"/>
      </g>
     </g>
     <g id="text_5">
      <!-- 2.5 -->
      <g transform="translate(332.561684 254.078908) scale(0.1 -0.1)">
       <use xlink:href="#DejaVuSans-32"/>
       <use xlink:href="#DejaVuSans-2e" x="63.623047"/>
       <use xlink:href="#DejaVuSans-35" x="95.410156"/>
      </g>
     </g>
    </g>
    <g id="xtick_6">
     <g id="line2d_6">
      <g>
       <use xlink:href="#m018567a269" x="398.487273" y="239.480471" style="stroke: #000000; stroke-width: 0.8"/>
      </g>
     </g>
     <g id="text_6">
      <!-- 3.0 -->
      <g transform="translate(390.53571 254.078908) scale(0.1 -0.1)">
       <defs>
        <path id="DejaVuSans-33" d="M 2597 2516 
Q 3050 2419 3304 2112 
Q 3559 1806 3559 1356 
Q 3559 666 3084 287 
Q 2609 -91 1734 -91 
Q 1441 -91 1130 -33 
Q 819 25 488 141 
L 488 750 
Q 750 597 1062 519 
Q 1375 441 1716 441 
Q 2309 441 2620 675 
Q 2931 909 2931 1356 
Q 2931 1769 2642 2001 
Q 2353 2234 1838 2234 
L 1294 2234 
L 1294 2753 
L 1863 2753 
Q 2328 2753 2575 2939 
Q 2822 3125 2822 3475 
Q 2822 3834 2567 4026 
Q 2313 4219 1838 4219 
Q 1578 4219 1281 4162 
Q 984 4106 628 3988 
L 628 4550 
Q 988 4650 1302 4700 
Q 1616 4750 1894 4750 
Q 2613 4750 3031 4423 
Q 3450 4097 3450 3541 
Q 3450 3153 3228 2886 
Q 3006 2619 2597 2516 
z
" transform="scale(0.015625)"/>
       </defs>
       <use xlink:href="#DejaVuSans-33"/>
       <use xlink:href="#DejaVuSans-2e" x="63.623047"/>
       <use xlink:href="#DejaVuSans-30" x="95.410156"/>
      </g>
     </g>
    </g>
    <g id="text_7">
     <!-- Sidemepikkus (A) -->
     <g transform="translate(192.517031 267.757033) scale(0.1 -0.1)">
      <defs>
       <path id="DejaVuSans-53" d="M 3425 4513 
L 3425 3897 
Q 3066 4069 2747 4153 
Q 2428 4238 2131 4238 
Q 1616 4238 1336 4038 
Q 1056 3838 1056 3469 
Q 1056 3159 1242 3001 
Q 1428 2844 1947 2747 
L 2328 2669 
Q 3034 2534 3370 2195 
Q 3706 1856 3706 1288 
Q 3706 609 3251 259 
Q 2797 -91 1919 -91 
Q 1588 -91 1214 -16 
Q 841 59 441 206 
L 441 856 
Q 825 641 1194 531 
Q 1563 422 1919 422 
Q 2459 422 2753 634 
Q 3047 847 3047 1241 
Q 3047 1584 2836 1778 
Q 2625 1972 2144 2069 
L 1759 2144 
Q 1053 2284 737 2584 
Q 422 2884 422 3419 
Q 422 4038 858 4394 
Q 1294 4750 2059 4750 
Q 2388 4750 2728 4690 
Q 3069 4631 3425 4513 
z
" transform="scale(0.015625)"/>
       <path id="DejaVuSans-69" d="M 603 3500 
L 1178 3500 
L 1178 0 
L 603 0 
L 603 3500 
z
M 603 4863 
L 1178 4863 
L 1178 4134 
L 603 4134 
L 603 4863 
z
" transform="scale(0.015625)"/>
       <path id="DejaVuSans-64" d="M 2906 2969 
L 2906 4863 
L 3481 4863 
L 3481 0 
L 2906 0 
L 2906 525 
Q 2725 213 2448 61 
Q 2172 -91 1784 -91 
Q 1150 -91 751 415 
Q 353 922 353 1747 
Q 353 2572 751 3078 
Q 1150 3584 1784 3584 
Q 2172 3584 2448 3432 
Q 2725 3281 2906 2969 
z
M 947 1747 
Q 947 1113 1208 752 
Q 1469 391 1925 391 
Q 2381 391 2643 752 
Q 2906 1113 2906 1747 
Q 2906 2381 2643 2742 
Q 2381 3103 1925 3103 
Q 1469 3103 1208 2742 
Q 947 2381 947 1747 
z
" transform="scale(0.015625)"/>
       <path id="DejaVuSans-65" d="M 3597 1894 
L 3597 1613 
L 953 1613 
Q 991 1019 1311 708 
Q 1631 397 2203 397 
Q 2534 397 2845 478 
Q 3156 559 3463 722 
L 3463 178 
Q 3153 47 2828 -22 
Q 2503 -91 2169 -91 
Q 1331 -91 842 396 
Q 353 884 353 1716 
Q 353 2575 817 3079 
Q 1281 3584 2069 3584 
Q 2775 3584 3186 3129 
Q 3597 2675 3597 1894 
z
M 3022 2063 
Q 3016 2534 2758 2815 
Q 2500 3097 2075 3097 
Q 1594 3097 1305 2825 
Q 1016 2553 972 2059 
L 3022 2063 
z
" transform="scale(0.015625)"/>
       <path id="DejaVuSans-6d" d="M 3328 2828 
Q 3544 3216 3844 3400 
Q 4144 3584 4550 3584 
Q 5097 3584 5394 3201 
Q 5691 2819 5691 2113 
L 5691 0 
L 5113 0 
L 5113 2094 
Q 5113 2597 4934 2840 
Q 4756 3084 4391 3084 
Q 3944 3084 3684 2787 
Q 3425 2491 3425 1978 
L 3425 0 
L 2847 0 
L 2847 2094 
Q 2847 2600 2669 2842 
Q 2491 3084 2119 3084 
Q 1678 3084 1418 2786 
Q 1159 2488 1159 1978 
L 1159 0 
L 581 0 
L 581 3500 
L 1159 3500 
L 1159 2956 
Q 1356 3278 1631 3431 
Q 1906 3584 2284 3584 
Q 2666 3584 2933 3390 
Q 3200 3197 3328 2828 
z
" transform="scale(0.015625)"/>
       <path id="DejaVuSans-70" d="M 1159 525 
L 1159 -1331 
L 581 -1331 
L 581 3500 
L 1159 3500 
L 1159 2969 
Q 1341 3281 1617 3432 
Q 1894 3584 2278 3584 
Q 2916 3584 3314 3078 
Q 3713 2572 3713 1747 
Q 3713 922 3314 415 
Q 2916 -91 2278 -91 
Q 1894 -91 1617 61 
Q 1341 213 1159 525 
z
M 3116 1747 
Q 3116 2381 2855 2742 
Q 2594 3103 2138 3103 
Q 1681 3103 1420 2742 
Q 1159 2381 1159 1747 
Q 1159 1113 1420 752 
Q 1681 391 2138 391 
Q 2594 391 2855 752 
Q 3116 1113 3116 1747 
z
" transform="scale(0.015625)"/>
       <path id="DejaVuSans-6b" d="M 581 4863 
L 1159 4863 
L 1159 1991 
L 2875 3500 
L 3609 3500 
L 1753 1863 
L 3688 0 
L 2938 0 
L 1159 1709 
L 1159 0 
L 581 0 
L 581 4863 
z
" transform="scale(0.015625)"/>
       <path id="DejaVuSans-75" d="M 544 1381 
L 544 3500 
L 1119 3500 
L 1119 1403 
Q 1119 906 1312 657 
Q 1506 409 1894 409 
Q 2359 409 2629 706 
Q 2900 1003 2900 1516 
L 2900 3500 
L 3475 3500 
L 3475 0 
L 2900 0 
L 2900 538 
Q 2691 219 2414 64 
Q 2138 -91 1772 -91 
Q 1169 -91 856 284 
Q 544 659 544 1381 
z
M 1991 3584 
L 1991 3584 
z
" transform="scale(0.015625)"/>
       <path id="DejaVuSans-73" d="M 2834 3397 
L 2834 2853 
Q 2591 2978 2328 3040 
Q 2066 3103 1784 3103 
Q 1356 3103 1142 2972 
Q 928 2841 928 2578 
Q 928 2378 1081 2264 
Q 1234 2150 1697 2047 
L 1894 2003 
Q 2506 1872 2764 1633 
Q 3022 1394 3022 966 
Q 3022 478 2636 193 
Q 2250 -91 1575 -91 
Q 1294 -91 989 -36 
Q 684 19 347 128 
L 347 722 
Q 666 556 975 473 
Q 1284 391 1588 391 
Q 1994 391 2212 530 
Q 2431 669 2431 922 
Q 2431 1156 2273 1281 
Q 2116 1406 1581 1522 
L 1381 1569 
Q 847 1681 609 1914 
Q 372 2147 372 2553 
Q 372 3047 722 3315 
Q 1072 3584 1716 3584 
Q 2034 3584 2315 3537 
Q 2597 3491 2834 3397 
z
" transform="scale(0.015625)"/>
       <path id="DejaVuSans-20" transform="scale(0.015625)"/>
       <path id="DejaVuSans-28" d="M 1984 4856 
Q 1566 4138 1362 3434 
Q 1159 2731 1159 2009 
Q 1159 1288 1364 580 
Q 1569 -128 1984 -844 
L 1484 -844 
Q 1016 -109 783 600 
Q 550 1309 550 2009 
Q 550 2706 781 3412 
Q 1013 4119 1484 4856 
L 1984 4856 
z
" transform="scale(0.015625)"/>
       <path id="DejaVuSans-41" d="M 2188 4044 
L 1331 1722 
L 3047 1722 
L 2188 4044 
z
M 1831 4666 
L 2547 4666 
L 4325 0 
L 3669 0 
L 3244 1197 
L 1141 1197 
L 716 0 
L 50 0 
L 1831 4666 
z
" transform="scale(0.015625)"/>
       <path id="DejaVuSans-29" d="M 513 4856 
L 1013 4856 
Q 1481 4119 1714 3412 
Q 1947 2706 1947 2009 
Q 1947 1309 1714 600 
Q 1481 -109 1013 -844 
L 513 -844 
Q 928 -128 1133 580 
Q 1338 1288 1338 2009 
Q 1338 2731 1133 3434 
Q 928 4138 513 4856 
z
" transform="scale(0.015625)"/>
      </defs>
      <use xlink:href="#DejaVuSans-53"/>
      <use xlink:href="#DejaVuSans-69" x="63.476562"/>
      <use xlink:href="#DejaVuSans-64" x="91.259766"/>
      <use xlink:href="#DejaVuSans-65" x="154.736328"/>
      <use xlink:href="#DejaVuSans-6d" x="216.259766"/>
      <use xlink:href="#DejaVuSans-65" x="313.671875"/>
      <use xlink:href="#DejaVuSans-70" x="375.195312"/>
      <use xlink:href="#DejaVuSans-69" x="438.671875"/>
      <use xlink:href="#DejaVuSans-6b" x="466.455078"/>
      <use xlink:href="#DejaVuSans-6b" x="524.365234"/>
      <use xlink:href="#DejaVuSans-75" x="579.150391"/>
      <use xlink:href="#DejaVuSans-73" x="642.529297"/>
      <use xlink:href="#DejaVuSans-20" x="694.628906"/>
      <use xlink:href="#DejaVuSans-28" x="726.416016"/>
      <use xlink:href="#DejaVuSans-41" x="765.429688"/>
      <use xlink:href="#DejaVuSans-29" x="833.837891"/>
     </g>
    </g>
   </g>
   <g id="matplotlib.axis_2">
    <g id="ytick_1">
     <g id="line2d_7">
      <defs>
       <path id="m064f5c6a36" d="M 0 0 
L -3.5 0 
" style="stroke: #000000; stroke-width: 0.8"/>
      </defs>
      <g>
       <use xlink:href="#m064f5c6a36" x="57.6" y="217.475174" style="stroke: #000000; stroke-width: 0.8"/>
      </g>
     </g>
     <g id="text_8">
      <!-- −1.00 -->
      <g transform="translate(19.954687 221.274393) scale(0.1 -0.1)">
       <defs>
        <path id="DejaVuSans-2212" d="M 678 2272 
L 4684 2272 
L 4684 1741 
L 678 1741 
L 678 2272 
z
" transform="scale(0.015625)"/>
       </defs>
       <use xlink:href="#DejaVuSans-2212"/>
       <use xlink:href="#DejaVuSans-31" x="83.789062"/>
       <use xlink:href="#DejaVuSans-2e" x="147.412109"/>
       <use xlink:href="#DejaVuSans-30" x="179.199219"/>
       <use xlink:href="#DejaVuSans-30" x="242.822266"/>
      </g>
     </g>
    </g>
    <g id="ytick_2">
     <g id="line2d_8">
      <g>
       <use xlink:href="#m064f5c6a36" x="57.6" y="190.24774" style="stroke: #000000; stroke-width: 0.8"/>
      </g>
     </g>
     <g id="text_9">
      <!-- −0.75 -->
      <g transform="translate(19.954687 194.046959) scale(0.1 -0.1)">
       <defs>
        <path id="DejaVuSans-37" d="M 525 4666 
L 3525 4666 
L 3525 4397 
L 1831 0 
L 1172 0 
L 2766 4134 
L 525 4134 
L 525 4666 
z
" transform="scale(0.015625)"/>
       </defs>
       <use xlink:href="#DejaVuSans-2212"/>
       <use xlink:href="#DejaVuSans-30" x="83.789062"/>
       <use xlink:href="#DejaVuSans-2e" x="147.412109"/>
       <use xlink:href="#DejaVuSans-37" x="179.199219"/>
       <use xlink:href="#DejaVuSans-35" x="242.822266"/>
      </g>
     </g>
    </g>
    <g id="ytick_3">
     <g id="line2d_9">
      <g>
       <use xlink:href="#m064f5c6a36" x="57.6" y="163.020307" style="stroke: #000000; stroke-width: 0.8"/>
      </g>
     </g>
     <g id="text_10">
      <!-- −0.50 -->
      <g transform="translate(19.954687 166.819526) scale(0.1 -0.1)">
       <use xlink:href="#DejaVuSans-2212"/>
       <use xlink:href="#DejaVuSans-30" x="83.789062"/>
       <use xlink:href="#DejaVuSans-2e" x="147.412109"/>
       <use xlink:href="#DejaVuSans-35" x="179.199219"/>
       <use xlink:href="#DejaVuSans-30" x="242.822266"/>
      </g>
     </g>
    </g>
    <g id="ytick_4">
     <g id="line2d_10">
      <g>
       <use xlink:href="#m064f5c6a36" x="57.6" y="135.792874" style="stroke: #000000; stroke-width: 0.8"/>
      </g>
     </g>
     <g id="text_11">
      <!-- −0.25 -->
      <g transform="translate(19.954687 139.592092) scale(0.1 -0.1)">
       <use xlink:href="#DejaVuSans-2212"/>
       <use xlink:href="#DejaVuSans-30" x="83.789062"/>
       <use xlink:href="#DejaVuSans-2e" x="147.412109"/>
       <use xlink:href="#DejaVuSans-32" x="179.199219"/>
       <use xlink:href="#DejaVuSans-35" x="242.822266"/>
      </g>
     </g>
    </g>
    <g id="ytick_5">
     <g id="line2d_11">
      <g>
       <use xlink:href="#m064f5c6a36" x="57.6" y="108.56544" style="stroke: #000000; stroke-width: 0.8"/>
      </g>
     </g>
     <g id="text_12">
      <!-- 0.00 -->
      <g transform="translate(28.334375 112.364659) scale(0.1 -0.1)">
       <use xlink:href="#DejaVuSans-30"/>
       <use xlink:href="#DejaVuSans-2e" x="63.623047"/>
       <use xlink:href="#DejaVuSans-30" x="95.410156"/>
       <use xlink:href="#DejaVuSans-30" x="159.033203"/>
      </g>
     </g>
    </g>
    <g id="text_13">
     <!-- Energia (Ha) -->
     <g transform="translate(13.875 192.527079) rotate(-90) scale(0.1 -0.1)">
      <defs>
       <path id="DejaVuSans-45" d="M 628 4666 
L 3578 4666 
L 3578 4134 
L 1259 4134 
L 1259 2753 
L 3481 2753 
L 3481 2222 
L 1259 2222 
L 1259 531 
L 3634 531 
L 3634 0 
L 628 0 
L 628 4666 
z
" transform="scale(0.015625)"/>
       <path id="DejaVuSans-6e" d="M 3513 2113 
L 3513 0 
L 2938 0 
L 2938 2094 
Q 2938 2591 2744 2837 
Q 2550 3084 2163 3084 
Q 1697 3084 1428 2787 
Q 1159 2491 1159 1978 
L 1159 0 
L 581 0 
L 581 3500 
L 1159 3500 
L 1159 2956 
Q 1366 3272 1645 3428 
Q 1925 3584 2291 3584 
Q 2894 3584 3203 3211 
Q 3513 2838 3513 2113 
z
" transform="scale(0.015625)"/>
       <path id="DejaVuSans-72" d="M 2631 2963 
Q 2534 3019 2420 3045 
Q 2306 3072 2169 3072 
Q 1681 3072 1420 2755 
Q 1159 2438 1159 1844 
L 1159 0 
L 581 0 
L 581 3500 
L 1159 3500 
L 1159 2956 
Q 1341 3275 1631 3429 
Q 1922 3584 2338 3584 
Q 2397 3584 2469 3576 
Q 2541 3569 2628 3553 
L 2631 2963 
z
" transform="scale(0.015625)"/>
       <path id="DejaVuSans-67" d="M 2906 1791 
Q 2906 2416 2648 2759 
Q 2391 3103 1925 3103 
Q 1463 3103 1205 2759 
Q 947 2416 947 1791 
Q 947 1169 1205 825 
Q 1463 481 1925 481 
Q 2391 481 2648 825 
Q 2906 1169 2906 1791 
z
M 3481 434 
Q 3481 -459 3084 -895 
Q 2688 -1331 1869 -1331 
Q 1566 -1331 1297 -1286 
Q 1028 -1241 775 -1147 
L 775 -588 
Q 1028 -725 1275 -790 
Q 1522 -856 1778 -856 
Q 2344 -856 2625 -561 
Q 2906 -266 2906 331 
L 2906 616 
Q 2728 306 2450 153 
Q 2172 0 1784 0 
Q 1141 0 747 490 
Q 353 981 353 1791 
Q 353 2603 747 3093 
Q 1141 3584 1784 3584 
Q 2172 3584 2450 3431 
Q 2728 3278 2906 2969 
L 2906 3500 
L 3481 3500 
L 3481 434 
z
" transform="scale(0.015625)"/>
       <path id="DejaVuSans-61" d="M 2194 1759 
Q 1497 1759 1228 1600 
Q 959 1441 959 1056 
Q 959 750 1161 570 
Q 1363 391 1709 391 
Q 2188 391 2477 730 
Q 2766 1069 2766 1631 
L 2766 1759 
L 2194 1759 
z
M 3341 1997 
L 3341 0 
L 2766 0 
L 2766 531 
Q 2569 213 2275 61 
Q 1981 -91 1556 -91 
Q 1019 -91 701 211 
Q 384 513 384 1019 
Q 384 1609 779 1909 
Q 1175 2209 1959 2209 
L 2766 2209 
L 2766 2266 
Q 2766 2663 2505 2880 
Q 2244 3097 1772 3097 
Q 1472 3097 1187 3025 
Q 903 2953 641 2809 
L 641 3341 
Q 956 3463 1253 3523 
Q 1550 3584 1831 3584 
Q 2591 3584 2966 3190 
Q 3341 2797 3341 1997 
z
" transform="scale(0.015625)"/>
       <path id="DejaVuSans-48" d="M 628 4666 
L 1259 4666 
L 1259 2753 
L 3553 2753 
L 3553 4666 
L 4184 4666 
L 4184 0 
L 3553 0 
L 3553 2222 
L 1259 2222 
L 1259 0 
L 628 0 
L 628 4666 
z
" transform="scale(0.015625)"/>
      </defs>
      <use xlink:href="#DejaVuSans-45"/>
      <use xlink:href="#DejaVuSans-6e" x="63.183594"/>
      <use xlink:href="#DejaVuSans-65" x="126.5625"/>
      <use xlink:href="#DejaVuSans-72" x="188.085938"/>
      <use xlink:href="#DejaVuSans-67" x="227.449219"/>
      <use xlink:href="#DejaVuSans-69" x="290.925781"/>
      <use xlink:href="#DejaVuSans-61" x="318.708984"/>
      <use xlink:href="#DejaVuSans-20" x="379.988281"/>
      <use xlink:href="#DejaVuSans-28" x="411.775391"/>
      <use xlink:href="#DejaVuSans-48" x="450.789062"/>
      <use xlink:href="#DejaVuSans-61" x="525.984375"/>
      <use xlink:href="#DejaVuSans-29" x="587.263672"/>
     </g>
    </g>
   </g>
   <g id="line2d_12">
    <path d="M 73.832727 93.56908 
L 85.857004 184.344918 
L 97.881165 200.458028 
L 109.905442 219.761853 
L 121.929718 227.260033 
L 133.953995 229.812605 
L 145.978156 229.653069 
L 158.002433 228.217247 
L 170.02671 226.143283 
L 182.05087 223.750246 
L 194.075147 221.516746 
L 206.099424 219.283246 
L 218.123585 217.368817 
L 230.147862 215.613923 
L 242.172138 214.337638 
L 254.196415 213.220887 
L 266.220576 212.423209 
L 278.244853 211.785066 
L 290.26913 211.306458 
L 302.29329 210.987387 
L 314.317567 149.247055 
L 326.341844 210.50878 
L 338.366005 210.50878 
L 350.390282 210.349244 
L 362.414558 210.349244 
L 374.438835 210.349244 
L 386.462996 210.189708 
L 398.487273 144.93959 
" clip-path="url(#pc7daa617ce)" style="fill: none; stroke: #1f77b4; stroke-width: 1.5; stroke-linecap: square"/>
   </g>
   <g id="line2d_13">
    <path d="M 73.832727 90.059294 
L 85.857004 174.932309 
L 97.881165 208.913422 
L 109.905442 223.750246 
L 121.929718 230.131676 
L 133.953995 231.886569 
L 145.978156 231.407962 
L 158.002433 229.653069 
L 170.02671 227.419568 
L 182.05087 224.866997 
L 194.075147 222.47396 
L 206.099424 220.080924 
L 218.123585 218.00696 
L 230.147862 216.252066 
L 242.172138 214.816245 
L 254.196415 213.699495 
L 266.220576 212.74228 
L 278.244853 211.944601 
L 290.26913 211.465994 
L 302.29329 211.146923 
L 314.317567 210.827851 
L 326.341844 210.668315 
L 338.366005 210.50878 
L 350.390282 210.349244 
L 362.414558 210.349244 
L 374.438835 210.349244 
L 386.462996 210.189708 
L 398.487273 144.93959 
" clip-path="url(#pc7daa617ce)" style="fill: none; stroke: #ff7f0e; stroke-width: 1.5; stroke-linecap: square"/>
   </g>
   <g id="line2d_14">
    <path d="M 73.832727 91.016509 
L 85.857004 175.570452 
L 97.881165 209.39203 
L 109.905442 224.228854 
L 121.929718 230.450748 
L 133.953995 232.205641 
L 145.978156 231.567498 
L 158.002433 229.97214 
L 170.02671 227.579104 
L 182.05087 225.186068 
L 194.075147 222.633496 
L 206.099424 220.24046 
L 218.123585 218.166495 
L 230.147862 216.411602 
L 242.172138 214.816245 
L 254.196415 213.699495 
L 266.220576 212.74228 
L 278.244853 212.104137 
L 290.26913 211.465994 
L 302.29329 211.146923 
L 314.317567 210.827851 
L 326.341844 210.668315 
L 338.366005 210.50878 
L 350.390282 210.349244 
L 362.414558 210.349244 
L 374.438835 210.349244 
L 386.462996 210.349244 
L 398.487273 210.189708 
" clip-path="url(#pc7daa617ce)" style="fill: none; stroke: #2ca02c; stroke-width: 1.5; stroke-linecap: square"/>
   </g>
   <g id="line2d_15">
    <path d="M 73.832727 91.176044 
L 85.857004 175.729988 
L 97.881165 209.551565 
L 109.905442 224.388389 
L 121.929718 230.610283 
L 133.953995 232.205641 
L 145.978156 231.727034 
L 158.002433 229.97214 
L 170.02671 227.73864 
L 182.05087 225.186068 
L 194.075147 222.633496 
L 206.099424 220.399996 
L 218.123585 218.166495 
L 230.147862 216.411602 
L 242.172138 214.975781 
L 254.196415 213.699495 
L 266.220576 212.74228 
L 278.244853 212.104137 
L 290.26913 211.465994 
L 302.29329 211.146923 
L 314.317567 210.827851 
L 326.341844 210.668315 
L 338.366005 210.50878 
L 350.390282 210.349244 
L 362.414558 210.349244 
L 374.438835 210.349244 
L 386.462996 145.577733 
L 398.487273 210.189708 
" clip-path="url(#pc7daa617ce)" style="fill: none; stroke: #d62728; stroke-width: 1.5; stroke-linecap: square"/>
   </g>
   <g id="line2d_16">
    <path d="M 73.832727 91.33558 
L 85.857004 175.889524 
L 97.881165 209.711101 
L 109.905442 224.547925 
L 121.929718 230.610283 
L 133.953995 232.365176 
L 145.978156 231.886569 
L 158.002433 230.131676 
L 170.02671 227.73864 
L 182.05087 225.186068 
L 194.075147 222.793032 
L 206.099424 220.399996 
L 218.123585 218.326031 
L 230.147862 216.411602 
L 242.172138 214.975781 
L 254.196415 213.699495 
L 266.220576 212.74228 
L 278.244853 212.104137 
L 290.26913 211.62553 
L 302.29329 211.146923 
L 314.317567 210.827851 
L 326.341844 210.668315 
L 338.366005 210.50878 
L 350.390282 210.50878 
L 362.414558 210.349244 
L 374.438835 210.349244 
L 386.462996 210.349244 
L 398.487273 210.189708 
" clip-path="url(#pc7daa617ce)" style="fill: none; stroke: #9467bd; stroke-width: 1.5; stroke-linecap: square"/>
   </g>
   <g id="line2d_17">
    <path d="M 73.832727 91.33558 
L 85.857004 175.889524 
L 97.881165 209.711101 
L 109.905442 224.547925 
L 121.929718 230.610283 
L 133.953995 232.365176 
L 145.978156 231.886569 
L 158.002433 230.131676 
L 170.02671 227.73864 
L 182.05087 225.345604 
L 194.075147 222.793032 
L 206.099424 220.399996 
L 218.123585 218.326031 
L 230.147862 216.411602 
L 242.172138 214.975781 
L 254.196415 213.699495 
L 266.220576 212.74228 
L 278.244853 212.104137 
L 290.26913 211.62553 
L 302.29329 211.146923 
L 314.317567 210.827851 
L 326.341844 210.668315 
L 338.366005 210.50878 
L 350.390282 210.50878 
L 362.414558 210.349244 
L 374.438835 210.349244 
L 386.462996 210.349244 
L 398.487273 210.189708 
" clip-path="url(#pc7daa617ce)" style="fill: none; stroke: #8c564b; stroke-width: 1.5; stroke-linecap: square"/>
   </g>
   <g id="patch_3">
    <path d="M 57.6 239.480471 
L 57.6 82.944 
" style="fill: none; stroke: #000000; stroke-width: 0.8; stroke-linejoin: miter; stroke-linecap: square"/>
   </g>
   <g id="patch_4">
    <path d="M 414.72 239.480471 
L 414.72 82.944 
" style="fill: none; stroke: #000000; stroke-width: 0.8; stroke-linejoin: miter; stroke-linecap: square"/>
   </g>
   <g id="patch_5">
    <path d="M 57.6 239.480471 
L 414.72 239.480471 
" style="fill: none; stroke: #000000; stroke-width: 0.8; stroke-linejoin: miter; stroke-linecap: square"/>
   </g>
   <g id="patch_6">
    <path d="M 57.6 82.944 
L 414.72 82.944 
" style="fill: none; stroke: #000000; stroke-width: 0.8; stroke-linejoin: miter; stroke-linecap: square"/>
   </g>
   <g id="legend_1">
    <g id="patch_7">
     <path d="M 191.733438 179.01275 
L 280.586563 179.01275 
Q 282.586563 179.01275 282.586563 177.01275 
L 282.586563 89.944 
Q 282.586563 87.944 280.586563 87.944 
L 191.733438 87.944 
Q 189.733438 87.944 189.733438 89.944 
L 189.733438 177.01275 
Q 189.733438 179.01275 191.733438 179.01275 
z
" style="fill: #ffffff; opacity: 0.8; stroke: #cccccc; stroke-linejoin: miter"/>
    </g>
    <g id="line2d_18">
     <path d="M 193.733438 96.042438 
L 203.733438 96.042438 
L 213.733438 96.042438 
" style="fill: none; stroke: #1f77b4; stroke-width: 1.5; stroke-linecap: square"/>
    </g>
    <g id="text_14">
     <!-- ntrots = 1 -->
     <g transform="translate(221.733438 99.542438) scale(0.1 -0.1)">
      <defs>
       <path id="DejaVuSans-74" d="M 1172 4494 
L 1172 3500 
L 2356 3500 
L 2356 3053 
L 1172 3053 
L 1172 1153 
Q 1172 725 1289 603 
Q 1406 481 1766 481 
L 2356 481 
L 2356 0 
L 1766 0 
Q 1100 0 847 248 
Q 594 497 594 1153 
L 594 3053 
L 172 3053 
L 172 3500 
L 594 3500 
L 594 4494 
L 1172 4494 
z
" transform="scale(0.015625)"/>
       <path id="DejaVuSans-6f" d="M 1959 3097 
Q 1497 3097 1228 2736 
Q 959 2375 959 1747 
Q 959 1119 1226 758 
Q 1494 397 1959 397 
Q 2419 397 2687 759 
Q 2956 1122 2956 1747 
Q 2956 2369 2687 2733 
Q 2419 3097 1959 3097 
z
M 1959 3584 
Q 2709 3584 3137 3096 
Q 3566 2609 3566 1747 
Q 3566 888 3137 398 
Q 2709 -91 1959 -91 
Q 1206 -91 779 398 
Q 353 888 353 1747 
Q 353 2609 779 3096 
Q 1206 3584 1959 3584 
z
" transform="scale(0.015625)"/>
       <path id="DejaVuSans-3d" d="M 678 2906 
L 4684 2906 
L 4684 2381 
L 678 2381 
L 678 2906 
z
M 678 1631 
L 4684 1631 
L 4684 1100 
L 678 1100 
L 678 1631 
z
" transform="scale(0.015625)"/>
      </defs>
      <use xlink:href="#DejaVuSans-6e"/>
      <use xlink:href="#DejaVuSans-74" x="63.378906"/>
      <use xlink:href="#DejaVuSans-72" x="102.587891"/>
      <use xlink:href="#DejaVuSans-6f" x="141.451172"/>
      <use xlink:href="#DejaVuSans-74" x="202.632812"/>
      <use xlink:href="#DejaVuSans-73" x="241.841797"/>
      <use xlink:href="#DejaVuSans-20" x="293.941406"/>
      <use xlink:href="#DejaVuSans-3d" x="325.728516"/>
      <use xlink:href="#DejaVuSans-20" x="409.517578"/>
      <use xlink:href="#DejaVuSans-31" x="441.304688"/>
     </g>
    </g>
    <g id="line2d_19">
     <path d="M 193.733438 110.720563 
L 203.733438 110.720563 
L 213.733438 110.720563 
" style="fill: none; stroke: #ff7f0e; stroke-width: 1.5; stroke-linecap: square"/>
    </g>
    <g id="text_15">
     <!-- ntrots = 2 -->
     <g transform="translate(221.733438 114.220563) scale(0.1 -0.1)">
      <use xlink:href="#DejaVuSans-6e"/>
      <use xlink:href="#DejaVuSans-74" x="63.378906"/>
      <use xlink:href="#DejaVuSans-72" x="102.587891"/>
      <use xlink:href="#DejaVuSans-6f" x="141.451172"/>
      <use xlink:href="#DejaVuSans-74" x="202.632812"/>
      <use xlink:href="#DejaVuSans-73" x="241.841797"/>
      <use xlink:href="#DejaVuSans-20" x="293.941406"/>
      <use xlink:href="#DejaVuSans-3d" x="325.728516"/>
      <use xlink:href="#DejaVuSans-20" x="409.517578"/>
      <use xlink:href="#DejaVuSans-32" x="441.304688"/>
     </g>
    </g>
    <g id="line2d_20">
     <path d="M 193.733438 125.398688 
L 203.733438 125.398688 
L 213.733438 125.398688 
" style="fill: none; stroke: #2ca02c; stroke-width: 1.5; stroke-linecap: square"/>
    </g>
    <g id="text_16">
     <!-- ntrots = 3 -->
     <g transform="translate(221.733438 128.898688) scale(0.1 -0.1)">
      <use xlink:href="#DejaVuSans-6e"/>
      <use xlink:href="#DejaVuSans-74" x="63.378906"/>
      <use xlink:href="#DejaVuSans-72" x="102.587891"/>
      <use xlink:href="#DejaVuSans-6f" x="141.451172"/>
      <use xlink:href="#DejaVuSans-74" x="202.632812"/>
      <use xlink:href="#DejaVuSans-73" x="241.841797"/>
      <use xlink:href="#DejaVuSans-20" x="293.941406"/>
      <use xlink:href="#DejaVuSans-3d" x="325.728516"/>
      <use xlink:href="#DejaVuSans-20" x="409.517578"/>
      <use xlink:href="#DejaVuSans-33" x="441.304688"/>
     </g>
    </g>
    <g id="line2d_21">
     <path d="M 193.733438 140.076812 
L 203.733438 140.076812 
L 213.733438 140.076812 
" style="fill: none; stroke: #d62728; stroke-width: 1.5; stroke-linecap: square"/>
    </g>
    <g id="text_17">
     <!-- ntrots = 4 -->
     <g transform="translate(221.733438 143.576812) scale(0.1 -0.1)">
      <defs>
       <path id="DejaVuSans-34" d="M 2419 4116 
L 825 1625 
L 2419 1625 
L 2419 4116 
z
M 2253 4666 
L 3047 4666 
L 3047 1625 
L 3713 1625 
L 3713 1100 
L 3047 1100 
L 3047 0 
L 2419 0 
L 2419 1100 
L 313 1100 
L 313 1709 
L 2253 4666 
z
" transform="scale(0.015625)"/>
      </defs>
      <use xlink:href="#DejaVuSans-6e"/>
      <use xlink:href="#DejaVuSans-74" x="63.378906"/>
      <use xlink:href="#DejaVuSans-72" x="102.587891"/>
      <use xlink:href="#DejaVuSans-6f" x="141.451172"/>
      <use xlink:href="#DejaVuSans-74" x="202.632812"/>
      <use xlink:href="#DejaVuSans-73" x="241.841797"/>
      <use xlink:href="#DejaVuSans-20" x="293.941406"/>
      <use xlink:href="#DejaVuSans-3d" x="325.728516"/>
      <use xlink:href="#DejaVuSans-20" x="409.517578"/>
      <use xlink:href="#DejaVuSans-34" x="441.304688"/>
     </g>
    </g>
    <g id="line2d_22">
     <path d="M 193.733438 154.754937 
L 203.733438 154.754937 
L 213.733438 154.754937 
" style="fill: none; stroke: #9467bd; stroke-width: 1.5; stroke-linecap: square"/>
    </g>
    <g id="text_18">
     <!-- ntrots = 8 -->
     <g transform="translate(221.733438 158.254937) scale(0.1 -0.1)">
      <defs>
       <path id="DejaVuSans-38" d="M 2034 2216 
Q 1584 2216 1326 1975 
Q 1069 1734 1069 1313 
Q 1069 891 1326 650 
Q 1584 409 2034 409 
Q 2484 409 2743 651 
Q 3003 894 3003 1313 
Q 3003 1734 2745 1975 
Q 2488 2216 2034 2216 
z
M 1403 2484 
Q 997 2584 770 2862 
Q 544 3141 544 3541 
Q 544 4100 942 4425 
Q 1341 4750 2034 4750 
Q 2731 4750 3128 4425 
Q 3525 4100 3525 3541 
Q 3525 3141 3298 2862 
Q 3072 2584 2669 2484 
Q 3125 2378 3379 2068 
Q 3634 1759 3634 1313 
Q 3634 634 3220 271 
Q 2806 -91 2034 -91 
Q 1263 -91 848 271 
Q 434 634 434 1313 
Q 434 1759 690 2068 
Q 947 2378 1403 2484 
z
M 1172 3481 
Q 1172 3119 1398 2916 
Q 1625 2713 2034 2713 
Q 2441 2713 2670 2916 
Q 2900 3119 2900 3481 
Q 2900 3844 2670 4047 
Q 2441 4250 2034 4250 
Q 1625 4250 1398 4047 
Q 1172 3844 1172 3481 
z
" transform="scale(0.015625)"/>
      </defs>
      <use xlink:href="#DejaVuSans-6e"/>
      <use xlink:href="#DejaVuSans-74" x="63.378906"/>
      <use xlink:href="#DejaVuSans-72" x="102.587891"/>
      <use xlink:href="#DejaVuSans-6f" x="141.451172"/>
      <use xlink:href="#DejaVuSans-74" x="202.632812"/>
      <use xlink:href="#DejaVuSans-73" x="241.841797"/>
      <use xlink:href="#DejaVuSans-20" x="293.941406"/>
      <use xlink:href="#DejaVuSans-3d" x="325.728516"/>
      <use xlink:href="#DejaVuSans-20" x="409.517578"/>
      <use xlink:href="#DejaVuSans-38" x="441.304688"/>
     </g>
    </g>
    <g id="line2d_23">
     <path d="M 193.733438 169.433063 
L 203.733438 169.433063 
L 213.733438 169.433063 
" style="fill: none; stroke: #8c564b; stroke-width: 1.5; stroke-linecap: square"/>
    </g>
    <g id="text_19">
     <!-- ntrots = 10 -->
     <g transform="translate(221.733438 172.933063) scale(0.1 -0.1)">
      <use xlink:href="#DejaVuSans-6e"/>
      <use xlink:href="#DejaVuSans-74" x="63.378906"/>
      <use xlink:href="#DejaVuSans-72" x="102.587891"/>
      <use xlink:href="#DejaVuSans-6f" x="141.451172"/>
      <use xlink:href="#DejaVuSans-74" x="202.632812"/>
      <use xlink:href="#DejaVuSans-73" x="241.841797"/>
      <use xlink:href="#DejaVuSans-20" x="293.941406"/>
      <use xlink:href="#DejaVuSans-3d" x="325.728516"/>
      <use xlink:href="#DejaVuSans-20" x="409.517578"/>
      <use xlink:href="#DejaVuSans-31" x="441.304688"/>
      <use xlink:href="#DejaVuSans-30" x="504.927734"/>
     </g>
    </g>
   </g>
  </g>
  <g id="axes_2">
   <g id="patch_8">
    <path d="M 57.6 427.324235 
L 414.72 427.324235 
L 414.72 270.787765 
L 57.6 270.787765 
z
" style="fill: #ffffff"/>
   </g>
   <g id="matplotlib.axis_3">
    <g id="xtick_7">
     <g id="line2d_24">
      <g>
       <use xlink:href="#m018567a269" x="108.617143" y="427.324235" style="stroke: #000000; stroke-width: 0.8"/>
      </g>
     </g>
     <g id="text_20">
      <!-- 0.5 -->
      <g transform="translate(100.66558 441.922673) scale(0.1 -0.1)">
       <use xlink:href="#DejaVuSans-30"/>
       <use xlink:href="#DejaVuSans-2e" x="63.623047"/>
       <use xlink:href="#DejaVuSans-35" x="95.410156"/>
      </g>
     </g>
    </g>
    <g id="xtick_8">
     <g id="line2d_25">
      <g>
       <use xlink:href="#m018567a269" x="166.591169" y="427.324235" style="stroke: #000000; stroke-width: 0.8"/>
      </g>
     </g>
     <g id="text_21">
      <!-- 1.0 -->
      <g transform="translate(158.639606 441.922673) scale(0.1 -0.1)">
       <use xlink:href="#DejaVuSans-31"/>
       <use xlink:href="#DejaVuSans-2e" x="63.623047"/>
       <use xlink:href="#DejaVuSans-30" x="95.410156"/>
      </g>
     </g>
    </g>
    <g id="xtick_9">
     <g id="line2d_26">
      <g>
       <use xlink:href="#m018567a269" x="224.565195" y="427.324235" style="stroke: #000000; stroke-width: 0.8"/>
      </g>
     </g>
     <g id="text_22">
      <!-- 1.5 -->
      <g transform="translate(216.613632 441.922673) scale(0.1 -0.1)">
       <use xlink:href="#DejaVuSans-31"/>
       <use xlink:href="#DejaVuSans-2e" x="63.623047"/>
       <use xlink:href="#DejaVuSans-35" x="95.410156"/>
      </g>
     </g>
    </g>
    <g id="xtick_10">
     <g id="line2d_27">
      <g>
       <use xlink:href="#m018567a269" x="282.539221" y="427.324235" style="stroke: #000000; stroke-width: 0.8"/>
      </g>
     </g>
     <g id="text_23">
      <!-- 2.0 -->
      <g transform="translate(274.587658 441.922673) scale(0.1 -0.1)">
       <use xlink:href="#DejaVuSans-32"/>
       <use xlink:href="#DejaVuSans-2e" x="63.623047"/>
       <use xlink:href="#DejaVuSans-30" x="95.410156"/>
      </g>
     </g>
    </g>
    <g id="xtick_11">
     <g id="line2d_28">
      <g>
       <use xlink:href="#m018567a269" x="340.513247" y="427.324235" style="stroke: #000000; stroke-width: 0.8"/>
      </g>
     </g>
     <g id="text_24">
      <!-- 2.5 -->
      <g transform="translate(332.561684 441.922673) scale(0.1 -0.1)">
       <use xlink:href="#DejaVuSans-32"/>
       <use xlink:href="#DejaVuSans-2e" x="63.623047"/>
       <use xlink:href="#DejaVuSans-35" x="95.410156"/>
      </g>
     </g>
    </g>
    <g id="xtick_12">
     <g id="line2d_29">
      <g>
       <use xlink:href="#m018567a269" x="398.487273" y="427.324235" style="stroke: #000000; stroke-width: 0.8"/>
      </g>
     </g>
     <g id="text_25">
      <!-- 3.0 -->
      <g transform="translate(390.53571 441.922673) scale(0.1 -0.1)">
       <use xlink:href="#DejaVuSans-33"/>
       <use xlink:href="#DejaVuSans-2e" x="63.623047"/>
       <use xlink:href="#DejaVuSans-30" x="95.410156"/>
      </g>
     </g>
    </g>
    <g id="text_26">
     <!-- Sidemepikkus (A) -->
     <g transform="translate(192.517031 455.600798) scale(0.1 -0.1)">
      <use xlink:href="#DejaVuSans-53"/>
      <use xlink:href="#DejaVuSans-69" x="63.476562"/>
      <use xlink:href="#DejaVuSans-64" x="91.259766"/>
      <use xlink:href="#DejaVuSans-65" x="154.736328"/>
      <use xlink:href="#DejaVuSans-6d" x="216.259766"/>
      <use xlink:href="#DejaVuSans-65" x="313.671875"/>
      <use xlink:href="#DejaVuSans-70" x="375.195312"/>
      <use xlink:href="#DejaVuSans-69" x="438.671875"/>
      <use xlink:href="#DejaVuSans-6b" x="466.455078"/>
      <use xlink:href="#DejaVuSans-6b" x="524.365234"/>
      <use xlink:href="#DejaVuSans-75" x="579.150391"/>
      <use xlink:href="#DejaVuSans-73" x="642.529297"/>
      <use xlink:href="#DejaVuSans-20" x="694.628906"/>
      <use xlink:href="#DejaVuSans-28" x="726.416016"/>
      <use xlink:href="#DejaVuSans-41" x="765.429688"/>
      <use xlink:href="#DejaVuSans-29" x="833.837891"/>
     </g>
    </g>
   </g>
   <g id="matplotlib.axis_4">
    <g id="ytick_6">
     <g id="line2d_30">
      <g>
       <use xlink:href="#m064f5c6a36" x="57.6" y="420.212567" style="stroke: #000000; stroke-width: 0.8"/>
      </g>
     </g>
     <g id="text_27">
      <!-- 0.0 -->
      <g transform="translate(34.696875 424.011786) scale(0.1 -0.1)">
       <use xlink:href="#DejaVuSans-30"/>
       <use xlink:href="#DejaVuSans-2e" x="63.623047"/>
       <use xlink:href="#DejaVuSans-30" x="95.410156"/>
      </g>
     </g>
    </g>
    <g id="ytick_7">
     <g id="line2d_31">
      <g>
       <use xlink:href="#m064f5c6a36" x="57.6" y="396.480372" style="stroke: #000000; stroke-width: 0.8"/>
      </g>
     </g>
     <g id="text_28">
      <!-- 0.1 -->
      <g transform="translate(34.696875 400.279591) scale(0.1 -0.1)">
       <use xlink:href="#DejaVuSans-30"/>
       <use xlink:href="#DejaVuSans-2e" x="63.623047"/>
       <use xlink:href="#DejaVuSans-31" x="95.410156"/>
      </g>
     </g>
    </g>
    <g id="ytick_8">
     <g id="line2d_32">
      <g>
       <use xlink:href="#m064f5c6a36" x="57.6" y="372.748177" style="stroke: #000000; stroke-width: 0.8"/>
      </g>
     </g>
     <g id="text_29">
      <!-- 0.2 -->
      <g transform="translate(34.696875 376.547395) scale(0.1 -0.1)">
       <use xlink:href="#DejaVuSans-30"/>
       <use xlink:href="#DejaVuSans-2e" x="63.623047"/>
       <use xlink:href="#DejaVuSans-32" x="95.410156"/>
      </g>
     </g>
    </g>
    <g id="ytick_9">
     <g id="line2d_33">
      <g>
       <use xlink:href="#m064f5c6a36" x="57.6" y="349.015981" style="stroke: #000000; stroke-width: 0.8"/>
      </g>
     </g>
     <g id="text_30">
      <!-- 0.3 -->
      <g transform="translate(34.696875 352.8152) scale(0.1 -0.1)">
       <use xlink:href="#DejaVuSans-30"/>
       <use xlink:href="#DejaVuSans-2e" x="63.623047"/>
       <use xlink:href="#DejaVuSans-33" x="95.410156"/>
      </g>
     </g>
    </g>
    <g id="ytick_10">
     <g id="line2d_34">
      <g>
       <use xlink:href="#m064f5c6a36" x="57.6" y="325.283786" style="stroke: #000000; stroke-width: 0.8"/>
      </g>
     </g>
     <g id="text_31">
      <!-- 0.4 -->
      <g transform="translate(34.696875 329.083005) scale(0.1 -0.1)">
       <use xlink:href="#DejaVuSans-30"/>
       <use xlink:href="#DejaVuSans-2e" x="63.623047"/>
       <use xlink:href="#DejaVuSans-34" x="95.410156"/>
      </g>
     </g>
    </g>
    <g id="ytick_11">
     <g id="line2d_35">
      <g>
       <use xlink:href="#m064f5c6a36" x="57.6" y="301.551591" style="stroke: #000000; stroke-width: 0.8"/>
      </g>
     </g>
     <g id="text_32">
      <!-- 0.5 -->
      <g transform="translate(34.696875 305.35081) scale(0.1 -0.1)">
       <use xlink:href="#DejaVuSans-30"/>
       <use xlink:href="#DejaVuSans-2e" x="63.623047"/>
       <use xlink:href="#DejaVuSans-35" x="95.410156"/>
      </g>
     </g>
    </g>
    <g id="ytick_12">
     <g id="line2d_36">
      <g>
       <use xlink:href="#m064f5c6a36" x="57.6" y="277.819396" style="stroke: #000000; stroke-width: 0.8"/>
      </g>
     </g>
     <g id="text_33">
      <!-- 0.6 -->
      <g transform="translate(34.696875 281.618614) scale(0.1 -0.1)">
       <defs>
        <path id="DejaVuSans-36" d="M 2113 2584 
Q 1688 2584 1439 2293 
Q 1191 2003 1191 1497 
Q 1191 994 1439 701 
Q 1688 409 2113 409 
Q 2538 409 2786 701 
Q 3034 994 3034 1497 
Q 3034 2003 2786 2293 
Q 2538 2584 2113 2584 
z
M 3366 4563 
L 3366 3988 
Q 3128 4100 2886 4159 
Q 2644 4219 2406 4219 
Q 1781 4219 1451 3797 
Q 1122 3375 1075 2522 
Q 1259 2794 1537 2939 
Q 1816 3084 2150 3084 
Q 2853 3084 3261 2657 
Q 3669 2231 3669 1497 
Q 3669 778 3244 343 
Q 2819 -91 2113 -91 
Q 1303 -91 875 529 
Q 447 1150 447 2328 
Q 447 3434 972 4092 
Q 1497 4750 2381 4750 
Q 2619 4750 2861 4703 
Q 3103 4656 3366 4563 
z
" transform="scale(0.015625)"/>
       </defs>
       <use xlink:href="#DejaVuSans-30"/>
       <use xlink:href="#DejaVuSans-2e" x="63.623047"/>
       <use xlink:href="#DejaVuSans-36" x="95.410156"/>
      </g>
     </g>
    </g>
    <g id="text_34">
     <!-- Energia viga (Ha) -->
     <g transform="translate(28.617187 392.546625) rotate(-90) scale(0.1 -0.1)">
      <defs>
       <path id="DejaVuSans-76" d="M 191 3500 
L 800 3500 
L 1894 563 
L 2988 3500 
L 3597 3500 
L 2284 0 
L 1503 0 
L 191 3500 
z
" transform="scale(0.015625)"/>
      </defs>
      <use xlink:href="#DejaVuSans-45"/>
      <use xlink:href="#DejaVuSans-6e" x="63.183594"/>
      <use xlink:href="#DejaVuSans-65" x="126.5625"/>
      <use xlink:href="#DejaVuSans-72" x="188.085938"/>
      <use xlink:href="#DejaVuSans-67" x="227.449219"/>
      <use xlink:href="#DejaVuSans-69" x="290.925781"/>
      <use xlink:href="#DejaVuSans-61" x="318.708984"/>
      <use xlink:href="#DejaVuSans-20" x="379.988281"/>
      <use xlink:href="#DejaVuSans-76" x="411.775391"/>
      <use xlink:href="#DejaVuSans-69" x="470.955078"/>
      <use xlink:href="#DejaVuSans-67" x="498.738281"/>
      <use xlink:href="#DejaVuSans-61" x="562.214844"/>
      <use xlink:href="#DejaVuSans-20" x="623.494141"/>
      <use xlink:href="#DejaVuSans-28" x="655.28125"/>
      <use xlink:href="#DejaVuSans-48" x="694.294922"/>
      <use xlink:href="#DejaVuSans-61" x="769.490234"/>
      <use xlink:href="#DejaVuSans-29" x="830.769531"/>
     </g>
    </g>
   </g>
   <g id="line2d_37">
    <path d="M 73.832727 415.51672 
L 85.857004 401.88009 
L 97.881165 400.026726 
L 109.905442 409.787005 
L 121.929718 412.764146 
L 133.953995 414.566904 
L 145.978156 415.45322 
L 158.002433 416.108767 
L 170.02671 416.602605 
L 182.05087 416.874102 
L 194.075147 417.486983 
L 206.099424 417.770523 
L 218.123585 418.211901 
L 230.147862 418.352338 
L 242.172138 418.856099 
L 254.196415 419.057418 
L 266.220576 419.373159 
L 278.244853 419.545102 
L 290.26913 419.667009 
L 302.29329 419.826124 
L 314.317567 285.908446 
L 326.341844 419.845961 
L 338.366005 420.162023 
L 350.390282 420.03804 
L 362.414558 420.195438 
L 374.438835 420.119529 
L 386.462996 420.03463 
L 398.487273 277.903059 
" clip-path="url(#p2c0fcef7e1)" style="fill: none; stroke: #1f77b4; stroke-width: 1.5; stroke-linecap: square"/>
   </g>
   <g id="line2d_38">
    <path d="M 73.832727 417.260343 
L 85.857004 418.034309 
L 97.881165 418.451623 
L 109.905442 418.477995 
L 121.929718 419.021658 
L 133.953995 419.086219 
L 145.978156 419.277255 
L 158.002433 419.237523 
L 170.02671 419.383721 
L 182.05087 419.307579 
L 194.075147 419.572821 
L 206.099424 419.508721 
L 218.123585 419.602459 
L 230.147862 419.742897 
L 242.172138 419.899017 
L 254.196415 420.100337 
L 266.220576 420.068438 
L 278.244853 419.892742 
L 290.26913 420.014649 
L 302.29329 420.173763 
L 314.317567 420.097323 
L 326.341844 420.1936 
L 338.366005 420.162023 
L 350.390282 420.03804 
L 362.414558 420.195438 
L 374.438835 420.119529 
L 386.462996 420.03463 
L 398.487273 277.903059 
" clip-path="url(#p2c0fcef7e1)" style="fill: none; stroke: #ff7f0e; stroke-width: 1.5; stroke-linecap: square"/>
   </g>
   <g id="line2d_39">
    <path d="M 73.832727 419.346181 
L 85.857004 419.424868 
L 97.881165 419.494542 
L 109.905442 419.520914 
L 121.929718 419.716938 
L 133.953995 419.781498 
L 145.978156 419.624895 
L 158.002433 419.932802 
L 170.02671 419.731361 
L 182.05087 420.002858 
L 194.075147 419.92046 
L 206.099424 419.85636 
L 218.123585 419.950099 
L 230.147862 420.090536 
L 242.172138 419.899017 
L 254.196415 420.100337 
L 266.220576 420.068438 
L 278.244853 420.184753 
L 290.26913 420.014649 
L 302.29329 420.173763 
L 314.317567 420.097323 
L 326.341844 420.1936 
L 338.366005 420.162023 
L 350.390282 420.03804 
L 362.414558 420.195438 
L 374.438835 420.119529 
L 386.462996 420.042864 
L 398.487273 420.087646 
" clip-path="url(#p2c0fcef7e1)" style="fill: none; stroke: #2ca02c; stroke-width: 1.5; stroke-linecap: square"/>
   </g>
   <g id="line2d_40">
    <path d="M 73.832727 419.69382 
L 85.857004 419.772507 
L 97.881165 419.842182 
L 109.905442 419.868553 
L 121.929718 420.064577 
L 133.953995 419.781498 
L 145.978156 419.972534 
L 158.002433 419.932802 
L 170.02671 420.079001 
L 182.05087 420.002858 
L 194.075147 419.92046 
L 206.099424 420.204 
L 218.123585 419.950099 
L 230.147862 420.090536 
L 242.172138 420.178477 
L 254.196415 420.100337 
L 266.220576 420.068438 
L 278.244853 420.184753 
L 290.26913 420.014649 
L 302.29329 420.173763 
L 314.317567 420.097323 
L 326.341844 420.1936 
L 338.366005 420.162023 
L 350.390282 420.03804 
L 362.414558 420.195438 
L 374.438835 420.119529 
L 386.462996 279.240601 
L 398.487273 420.087646 
" clip-path="url(#p2c0fcef7e1)" style="fill: none; stroke: #d62728; stroke-width: 1.5; stroke-linecap: square"/>
   </g>
   <g id="line2d_41">
    <path d="M 73.832727 420.04146 
L 85.857004 420.120147 
L 97.881165 420.189821 
L 109.905442 420.208941 
L 121.929718 420.064577 
L 133.953995 420.129137 
L 145.978156 420.10496 
L 158.002433 420.144693 
L 170.02671 420.079001 
L 182.05087 420.002858 
L 194.075147 420.157034 
L 206.099424 420.204 
L 218.123585 420.127396 
L 230.147862 420.090536 
L 242.172138 420.178477 
L 254.196415 420.100337 
L 266.220576 420.068438 
L 278.244853 420.184753 
L 290.26913 420.062846 
L 302.29329 420.173763 
L 314.317567 420.097323 
L 326.341844 420.1936 
L 338.366005 420.162023 
L 350.390282 420.039455 
L 362.414558 420.195438 
L 374.438835 420.119529 
L 386.462996 420.042864 
L 398.487273 420.087646 
" clip-path="url(#p2c0fcef7e1)" style="fill: none; stroke: #9467bd; stroke-width: 1.5; stroke-linecap: square"/>
   </g>
   <g id="line2d_42">
    <path d="M 73.832727 420.04146 
L 85.857004 420.120147 
L 97.881165 420.189821 
L 109.905442 420.208941 
L 121.929718 420.064577 
L 133.953995 420.129137 
L 145.978156 420.10496 
L 158.002433 420.144693 
L 170.02671 420.079001 
L 182.05087 420.074637 
L 194.075147 420.157034 
L 206.099424 420.204 
L 218.123585 420.127396 
L 230.147862 420.090536 
L 242.172138 420.178477 
L 254.196415 420.100337 
L 266.220576 420.068438 
L 278.244853 420.184753 
L 290.26913 420.062846 
L 302.29329 420.173763 
L 314.317567 420.097323 
L 326.341844 420.1936 
L 338.366005 420.162023 
L 350.390282 420.039455 
L 362.414558 420.195438 
L 374.438835 420.119529 
L 386.462996 420.042864 
L 398.487273 420.087646 
" clip-path="url(#p2c0fcef7e1)" style="fill: none; stroke: #8c564b; stroke-width: 1.5; stroke-linecap: square"/>
   </g>
   <g id="line2d_43">
    <path d="M 57.6 419.835225 
L 414.72 419.835225 
" clip-path="url(#p2c0fcef7e1)" style="fill: none; stroke-dasharray: 5.55,2.4; stroke-dashoffset: 0; stroke: #1f77b4; stroke-width: 1.5"/>
   </g>
   <g id="patch_9">
    <path d="M 57.6 427.324235 
L 57.6 270.787765 
" style="fill: none; stroke: #000000; stroke-width: 0.8; stroke-linejoin: miter; stroke-linecap: square"/>
   </g>
   <g id="patch_10">
    <path d="M 414.72 427.324235 
L 414.72 270.787765 
" style="fill: none; stroke: #000000; stroke-width: 0.8; stroke-linejoin: miter; stroke-linecap: square"/>
   </g>
   <g id="patch_11">
    <path d="M 57.6 427.324235 
L 414.72 427.324235 
" style="fill: none; stroke: #000000; stroke-width: 0.8; stroke-linejoin: miter; stroke-linecap: square"/>
   </g>
   <g id="patch_12">
    <path d="M 57.6 270.787765 
L 414.72 270.787765 
" style="fill: none; stroke: #000000; stroke-width: 0.8; stroke-linejoin: miter; stroke-linecap: square"/>
   </g>
   <g id="axes_3">
    <g id="patch_13">
     <path d="M 193.3056 380.363294 
L 400.4352 380.363294 
L 400.4352 305.225788 
L 193.3056 305.225788 
z
" style="fill: #ffffff"/>
    </g>
    <g id="matplotlib.axis_5">
     <g id="xtick_13">
      <g id="line2d_44">
       <g>
        <use xlink:href="#m018567a269" x="256.520478" y="380.363294" style="stroke: #000000; stroke-width: 0.8"/>
       </g>
      </g>
      <g id="text_35">
       <!-- 1 -->
       <g transform="translate(253.339228 394.961732) scale(0.1 -0.1)">
        <use xlink:href="#DejaVuSans-31"/>
       </g>
      </g>
     </g>
     <g id="xtick_14">
      <g id="line2d_45">
       <g>
        <use xlink:href="#m018567a269" x="323.770348" y="380.363294" style="stroke: #000000; stroke-width: 0.8"/>
       </g>
      </g>
      <g id="text_36">
       <!-- 2 -->
       <g transform="translate(320.589098 394.961732) scale(0.1 -0.1)">
        <use xlink:href="#DejaVuSans-32"/>
       </g>
      </g>
     </g>
     <g id="xtick_15">
      <g id="line2d_46">
       <g>
        <use xlink:href="#m018567a269" x="391.020218" y="380.363294" style="stroke: #000000; stroke-width: 0.8"/>
       </g>
      </g>
      <g id="text_37">
       <!-- 3 -->
       <g transform="translate(387.838968 394.961732) scale(0.1 -0.1)">
        <use xlink:href="#DejaVuSans-33"/>
       </g>
      </g>
     </g>
    </g>
    <g id="matplotlib.axis_6">
     <g id="ytick_13">
      <g id="line2d_47">
       <g>
        <use xlink:href="#m064f5c6a36" x="193.3056" y="380.363294" style="stroke: #000000; stroke-width: 0.8"/>
       </g>
      </g>
      <g id="text_38">
       <!-- 0.000 -->
       <g transform="translate(157.677475 384.162513) scale(0.1 -0.1)">
        <use xlink:href="#DejaVuSans-30"/>
        <use xlink:href="#DejaVuSans-2e" x="63.623047"/>
        <use xlink:href="#DejaVuSans-30" x="95.410156"/>
        <use xlink:href="#DejaVuSans-30" x="159.033203"/>
        <use xlink:href="#DejaVuSans-30" x="222.65625"/>
       </g>
      </g>
     </g>
     <g id="ytick_14">
      <g id="line2d_48">
       <g>
        <use xlink:href="#m064f5c6a36" x="193.3056" y="348.859099" style="stroke: #000000; stroke-width: 0.8"/>
       </g>
      </g>
      <g id="text_39">
       <!-- 0.002 -->
       <g transform="translate(157.677475 352.658318) scale(0.1 -0.1)">
        <use xlink:href="#DejaVuSans-30"/>
        <use xlink:href="#DejaVuSans-2e" x="63.623047"/>
        <use xlink:href="#DejaVuSans-30" x="95.410156"/>
        <use xlink:href="#DejaVuSans-30" x="159.033203"/>
        <use xlink:href="#DejaVuSans-32" x="222.65625"/>
       </g>
      </g>
     </g>
     <g id="ytick_15">
      <g id="line2d_49">
       <g>
        <use xlink:href="#m064f5c6a36" x="193.3056" y="317.354903" style="stroke: #000000; stroke-width: 0.8"/>
       </g>
      </g>
      <g id="text_40">
       <!-- 0.004 -->
       <g transform="translate(157.677475 321.154122) scale(0.1 -0.1)">
        <use xlink:href="#DejaVuSans-30"/>
        <use xlink:href="#DejaVuSans-2e" x="63.623047"/>
        <use xlink:href="#DejaVuSans-30" x="95.410156"/>
        <use xlink:href="#DejaVuSans-30" x="159.033203"/>
        <use xlink:href="#DejaVuSans-34" x="222.65625"/>
       </g>
      </g>
     </g>
    </g>
    <g id="line2d_50">
     <path d="M 202.720582 68.679354 
L 203.25747 -1 
M 237.20415 -1 
L 237.590917 5.635905 
L 244.564931 64.464565 
L 251.539011 107.976079 
L 258.513092 140.754287 
L 265.487105 158.774718 
L 272.461185 199.454372 
L 279.435266 218.274133 
L 286.409279 247.570321 
L 293.38336 256.89176 
L 300.35744 290.328546 
L 307.331521 303.691019 
L 314.305534 324.648115 
L 321.279615 336.060727 
L 328.253695 344.152218 
L 335.227708 354.713372 
L 335.506801 -1 
M 348.895785 -1 
L 349.175869 356.030032 
L 356.149883 377.008466 
L 363.123963 368.779156 
L 370.098044 379.226374 
L 377.072124 374.187941 
L 384.046138 368.552849 
L 384.319332 -1 
" clip-path="url(#p122366ffcd)" style="fill: none; stroke: #1f77b4; stroke-width: 1.5; stroke-linecap: square"/>
    </g>
    <g id="line2d_51">
     <path d="M 202.720582 184.411274 
L 209.694662 235.782792 
L 216.668676 263.48175 
L 223.642756 265.232148 
L 230.616837 301.317474 
L 237.590917 305.60261 
L 244.564931 318.282546 
L 251.539011 315.645335 
L 258.513092 325.349181 
L 265.487105 320.295251 
L 272.461185 337.900542 
L 279.435266 333.645942 
L 286.409279 339.867768 
L 293.38336 349.189208 
L 300.35744 359.551632 
L 307.331521 372.914104 
L 314.305534 370.79684 
L 321.279615 359.13509 
L 328.253695 367.22658 
L 335.227708 377.787733 
L 342.201789 372.714055 
L 349.175869 379.104394 
L 356.149883 377.008466 
L 363.123963 368.779156 
L 370.098044 379.226374 
L 377.072124 374.187941 
L 384.046138 368.552849 
L 384.319332 -1 
" clip-path="url(#p122366ffcd)" style="fill: none; stroke: #ff7f0e; stroke-width: 1.5; stroke-linecap: square"/>
    </g>
    <g id="line2d_52">
     <path d="M 202.720582 322.857445 
L 209.694662 328.080239 
L 216.668676 332.704834 
L 223.642756 334.455234 
L 230.616837 347.466197 
L 237.590917 351.751332 
L 244.564931 341.356907 
L 251.539011 361.79406 
L 258.513092 348.423542 
L 265.487105 366.443973 
L 272.461185 360.974903 
L 279.435266 356.720304 
L 286.409279 362.942129 
L 293.38336 372.26357 
L 300.35744 359.551632 
L 307.331521 372.914104 
L 314.305534 370.79684 
L 321.279615 378.517136 
L 328.253695 367.22658 
L 335.227708 377.787733 
L 342.201789 372.714055 
L 349.175869 379.104394 
L 356.149883 377.008466 
L 363.123963 368.779156 
L 370.098044 379.226374 
L 377.072124 374.187941 
L 384.046138 369.099379 
L 391.020218 372.071771 
" clip-path="url(#p122366ffcd)" style="fill: none; stroke: #2ca02c; stroke-width: 1.5; stroke-linecap: square"/>
    </g>
    <g id="line2d_53">
     <path d="M 202.720582 345.931806 
L 209.694662 351.154602 
L 216.668676 355.779197 
L 223.642756 357.529595 
L 230.616837 370.54056 
L 237.590917 351.751332 
L 244.564931 364.43127 
L 251.539011 361.79406 
L 258.513092 371.497903 
L 265.487105 366.443973 
L 272.461185 360.974903 
L 279.435266 379.794667 
L 286.409279 362.942129 
L 293.38336 372.26357 
L 300.35744 378.100595 
L 307.331521 372.914104 
L 314.305534 370.79684 
L 321.279615 378.517136 
L 328.253695 367.22658 
L 335.227708 377.787733 
L 342.201789 372.714055 
L 349.175869 379.104394 
L 356.149883 377.008466 
L 363.123963 368.779156 
L 370.098044 379.226374 
L 377.072124 374.187941 
L 377.351948 -1 
M 390.741907 -1 
L 391.020218 372.071771 
" clip-path="url(#p122366ffcd)" style="fill: none; stroke: #d62728; stroke-width: 1.5; stroke-linecap: square"/>
    </g>
    <g id="line2d_54">
     <path d="M 202.720582 369.006169 
L 209.694662 374.228963 
L 216.668676 378.853558 
L 223.642756 380.122632 
L 230.616837 370.54056 
L 237.590917 374.825695 
L 244.564931 373.220956 
L 251.539011 375.858167 
L 258.513092 371.497903 
L 265.487105 366.443973 
L 272.461185 376.677322 
L 279.435266 379.794667 
L 286.409279 374.710096 
L 293.38336 372.26357 
L 300.35744 378.100595 
L 307.331521 372.914104 
L 314.305534 370.79684 
L 321.279615 378.517136 
L 328.253695 370.425647 
L 335.227708 377.787733 
L 342.201789 372.714055 
L 349.175869 379.104394 
L 356.149883 377.008466 
L 363.123963 368.873071 
L 370.098044 379.226374 
L 377.072124 374.187941 
L 384.046138 369.099379 
L 391.020218 372.071771 
" clip-path="url(#p122366ffcd)" style="fill: none; stroke: #9467bd; stroke-width: 1.5; stroke-linecap: square"/>
    </g>
    <g id="line2d_55">
     <path d="M 202.720582 369.006169 
L 209.694662 374.228963 
L 216.668676 378.853558 
L 223.642756 380.122632 
L 230.616837 370.54056 
L 237.590917 374.825695 
L 244.564931 373.220956 
L 251.539011 375.858167 
L 258.513092 371.497903 
L 265.487105 371.208252 
L 272.461185 376.677322 
L 279.435266 379.794667 
L 286.409279 374.710096 
L 293.38336 372.26357 
L 300.35744 378.100595 
L 307.331521 372.914104 
L 314.305534 370.79684 
L 321.279615 378.517136 
L 328.253695 370.425647 
L 335.227708 377.787733 
L 342.201789 372.714055 
L 349.175869 379.104394 
L 356.149883 377.008466 
L 363.123963 368.873071 
L 370.098044 379.226374 
L 377.072124 374.187941 
L 384.046138 369.099379 
L 391.020218 372.071771 
" clip-path="url(#p122366ffcd)" style="fill: none; stroke: #8c564b; stroke-width: 1.5; stroke-linecap: square"/>
    </g>
    <g id="line2d_56">
     <path d="M 193.3056 355.317459 
L 400.4352 355.317459 
" clip-path="url(#p122366ffcd)" style="fill: none; stroke-dasharray: 5.55,2.4; stroke-dashoffset: 0; stroke: #1f77b4; stroke-width: 1.5"/>
    </g>
    <g id="patch_14">
     <path d="M 193.3056 380.363294 
L 193.3056 305.225788 
" style="fill: none; stroke: #000000; stroke-width: 0.8; stroke-linejoin: miter; stroke-linecap: square"/>
    </g>
    <g id="patch_15">
     <path d="M 400.4352 380.363294 
L 400.4352 305.225788 
" style="fill: none; stroke: #000000; stroke-width: 0.8; stroke-linejoin: miter; stroke-linecap: square"/>
    </g>
    <g id="patch_16">
     <path d="M 193.3056 380.363294 
L 400.4352 380.363294 
" style="fill: none; stroke: #000000; stroke-width: 0.8; stroke-linejoin: miter; stroke-linecap: square"/>
    </g>
    <g id="patch_17">
     <path d="M 193.3056 305.225788 
L 400.4352 305.225788 
" style="fill: none; stroke: #000000; stroke-width: 0.8; stroke-linejoin: miter; stroke-linecap: square"/>
    </g>
   </g>
   <g id="legend_2">
    <g id="patch_18">
     <path d="M 64.6 381.53464 
L 181.860938 381.53464 
Q 183.860938 381.53464 183.860938 379.53464 
L 183.860938 277.787765 
Q 183.860938 275.787765 181.860938 275.787765 
L 64.6 275.787765 
Q 62.6 275.787765 62.6 277.787765 
L 62.6 379.53464 
Q 62.6 381.53464 64.6 381.53464 
z
" style="fill: #ffffff; opacity: 0.8; stroke: #cccccc; stroke-linejoin: miter"/>
    </g>
    <g id="line2d_57">
     <path d="M 66.6 283.886202 
L 76.6 283.886202 
L 86.6 283.886202 
" style="fill: none; stroke: #1f77b4; stroke-width: 1.5; stroke-linecap: square"/>
    </g>
    <g id="text_41">
     <!-- ntrots = 1 -->
     <g transform="translate(94.6 287.386202) scale(0.1 -0.1)">
      <use xlink:href="#DejaVuSans-6e"/>
      <use xlink:href="#DejaVuSans-74" x="63.378906"/>
      <use xlink:href="#DejaVuSans-72" x="102.587891"/>
      <use xlink:href="#DejaVuSans-6f" x="141.451172"/>
      <use xlink:href="#DejaVuSans-74" x="202.632812"/>
      <use xlink:href="#DejaVuSans-73" x="241.841797"/>
      <use xlink:href="#DejaVuSans-20" x="293.941406"/>
      <use xlink:href="#DejaVuSans-3d" x="325.728516"/>
      <use xlink:href="#DejaVuSans-20" x="409.517578"/>
      <use xlink:href="#DejaVuSans-31" x="441.304688"/>
     </g>
    </g>
    <g id="line2d_58">
     <path d="M 66.6 298.564327 
L 76.6 298.564327 
L 86.6 298.564327 
" style="fill: none; stroke: #ff7f0e; stroke-width: 1.5; stroke-linecap: square"/>
    </g>
    <g id="text_42">
     <!-- ntrots = 2 -->
     <g transform="translate(94.6 302.064327) scale(0.1 -0.1)">
      <use xlink:href="#DejaVuSans-6e"/>
      <use xlink:href="#DejaVuSans-74" x="63.378906"/>
      <use xlink:href="#DejaVuSans-72" x="102.587891"/>
      <use xlink:href="#DejaVuSans-6f" x="141.451172"/>
      <use xlink:href="#DejaVuSans-74" x="202.632812"/>
      <use xlink:href="#DejaVuSans-73" x="241.841797"/>
      <use xlink:href="#DejaVuSans-20" x="293.941406"/>
      <use xlink:href="#DejaVuSans-3d" x="325.728516"/>
      <use xlink:href="#DejaVuSans-20" x="409.517578"/>
      <use xlink:href="#DejaVuSans-32" x="441.304688"/>
     </g>
    </g>
    <g id="line2d_59">
     <path d="M 66.6 313.242452 
L 76.6 313.242452 
L 86.6 313.242452 
" style="fill: none; stroke: #2ca02c; stroke-width: 1.5; stroke-linecap: square"/>
    </g>
    <g id="text_43">
     <!-- ntrots = 3 -->
     <g transform="translate(94.6 316.742452) scale(0.1 -0.1)">
      <use xlink:href="#DejaVuSans-6e"/>
      <use xlink:href="#DejaVuSans-74" x="63.378906"/>
      <use xlink:href="#DejaVuSans-72" x="102.587891"/>
      <use xlink:href="#DejaVuSans-6f" x="141.451172"/>
      <use xlink:href="#DejaVuSans-74" x="202.632812"/>
      <use xlink:href="#DejaVuSans-73" x="241.841797"/>
      <use xlink:href="#DejaVuSans-20" x="293.941406"/>
      <use xlink:href="#DejaVuSans-3d" x="325.728516"/>
      <use xlink:href="#DejaVuSans-20" x="409.517578"/>
      <use xlink:href="#DejaVuSans-33" x="441.304688"/>
     </g>
    </g>
    <g id="line2d_60">
     <path d="M 66.6 327.920577 
L 76.6 327.920577 
L 86.6 327.920577 
" style="fill: none; stroke: #d62728; stroke-width: 1.5; stroke-linecap: square"/>
    </g>
    <g id="text_44">
     <!-- ntrots = 4 -->
     <g transform="translate(94.6 331.420577) scale(0.1 -0.1)">
      <use xlink:href="#DejaVuSans-6e"/>
      <use xlink:href="#DejaVuSans-74" x="63.378906"/>
      <use xlink:href="#DejaVuSans-72" x="102.587891"/>
      <use xlink:href="#DejaVuSans-6f" x="141.451172"/>
      <use xlink:href="#DejaVuSans-74" x="202.632812"/>
      <use xlink:href="#DejaVuSans-73" x="241.841797"/>
      <use xlink:href="#DejaVuSans-20" x="293.941406"/>
      <use xlink:href="#DejaVuSans-3d" x="325.728516"/>
      <use xlink:href="#DejaVuSans-20" x="409.517578"/>
      <use xlink:href="#DejaVuSans-34" x="441.304688"/>
     </g>
    </g>
    <g id="line2d_61">
     <path d="M 66.6 342.598702 
L 76.6 342.598702 
L 86.6 342.598702 
" style="fill: none; stroke: #9467bd; stroke-width: 1.5; stroke-linecap: square"/>
    </g>
    <g id="text_45">
     <!-- ntrots = 8 -->
     <g transform="translate(94.6 346.098702) scale(0.1 -0.1)">
      <use xlink:href="#DejaVuSans-6e"/>
      <use xlink:href="#DejaVuSans-74" x="63.378906"/>
      <use xlink:href="#DejaVuSans-72" x="102.587891"/>
      <use xlink:href="#DejaVuSans-6f" x="141.451172"/>
      <use xlink:href="#DejaVuSans-74" x="202.632812"/>
      <use xlink:href="#DejaVuSans-73" x="241.841797"/>
      <use xlink:href="#DejaVuSans-20" x="293.941406"/>
      <use xlink:href="#DejaVuSans-3d" x="325.728516"/>
      <use xlink:href="#DejaVuSans-20" x="409.517578"/>
      <use xlink:href="#DejaVuSans-38" x="441.304688"/>
     </g>
    </g>
    <g id="line2d_62">
     <path d="M 66.6 357.276827 
L 76.6 357.276827 
L 86.6 357.276827 
" style="fill: none; stroke: #8c564b; stroke-width: 1.5; stroke-linecap: square"/>
    </g>
    <g id="text_46">
     <!-- ntrots = 10 -->
     <g transform="translate(94.6 360.776827) scale(0.1 -0.1)">
      <use xlink:href="#DejaVuSans-6e"/>
      <use xlink:href="#DejaVuSans-74" x="63.378906"/>
      <use xlink:href="#DejaVuSans-72" x="102.587891"/>
      <use xlink:href="#DejaVuSans-6f" x="141.451172"/>
      <use xlink:href="#DejaVuSans-74" x="202.632812"/>
      <use xlink:href="#DejaVuSans-73" x="241.841797"/>
      <use xlink:href="#DejaVuSans-20" x="293.941406"/>
      <use xlink:href="#DejaVuSans-3d" x="325.728516"/>
      <use xlink:href="#DejaVuSans-20" x="409.517578"/>
      <use xlink:href="#DejaVuSans-31" x="441.304688"/>
      <use xlink:href="#DejaVuSans-30" x="504.927734"/>
     </g>
    </g>
    <g id="line2d_63">
     <path d="M 66.6 371.954952 
L 76.6 371.954952 
L 86.6 371.954952 
" style="fill: none; stroke-dasharray: 5.55,2.4; stroke-dashoffset: 0; stroke: #1f77b4; stroke-width: 1.5"/>
    </g>
    <g id="text_47">
     <!-- Keemiline täpsus -->
     <g transform="translate(94.6 375.454952) scale(0.1 -0.1)">
      <defs>
       <path id="DejaVuSans-4b" d="M 628 4666 
L 1259 4666 
L 1259 2694 
L 3353 4666 
L 4166 4666 
L 1850 2491 
L 4331 0 
L 3500 0 
L 1259 2247 
L 1259 0 
L 628 0 
L 628 4666 
z
" transform="scale(0.015625)"/>
       <path id="DejaVuSans-6c" d="M 603 4863 
L 1178 4863 
L 1178 0 
L 603 0 
L 603 4863 
z
" transform="scale(0.015625)"/>
       <path id="DejaVuSans-e4" d="M 2194 1759 
Q 1497 1759 1228 1600 
Q 959 1441 959 1056 
Q 959 750 1161 570 
Q 1363 391 1709 391 
Q 2188 391 2477 730 
Q 2766 1069 2766 1631 
L 2766 1759 
L 2194 1759 
z
M 3341 1997 
L 3341 0 
L 2766 0 
L 2766 531 
Q 2569 213 2275 61 
Q 1981 -91 1556 -91 
Q 1019 -91 701 211 
Q 384 513 384 1019 
Q 384 1609 779 1909 
Q 1175 2209 1959 2209 
L 2766 2209 
L 2766 2266 
Q 2766 2663 2505 2880 
Q 2244 3097 1772 3097 
Q 1472 3097 1187 3025 
Q 903 2953 641 2809 
L 641 3341 
Q 956 3463 1253 3523 
Q 1550 3584 1831 3584 
Q 2591 3584 2966 3190 
Q 3341 2797 3341 1997 
z
M 2150 4850 
L 2784 4850 
L 2784 4219 
L 2150 4219 
L 2150 4850 
z
M 928 4850 
L 1563 4850 
L 1563 4219 
L 928 4219 
L 928 4850 
z
" transform="scale(0.015625)"/>
      </defs>
      <use xlink:href="#DejaVuSans-4b"/>
      <use xlink:href="#DejaVuSans-65" x="60.576172"/>
      <use xlink:href="#DejaVuSans-65" x="122.099609"/>
      <use xlink:href="#DejaVuSans-6d" x="183.623047"/>
      <use xlink:href="#DejaVuSans-69" x="281.035156"/>
      <use xlink:href="#DejaVuSans-6c" x="308.818359"/>
      <use xlink:href="#DejaVuSans-69" x="336.601562"/>
      <use xlink:href="#DejaVuSans-6e" x="364.384766"/>
      <use xlink:href="#DejaVuSans-65" x="427.763672"/>
      <use xlink:href="#DejaVuSans-20" x="489.287109"/>
      <use xlink:href="#DejaVuSans-74" x="521.074219"/>
      <use xlink:href="#DejaVuSans-e4" x="560.283203"/>
      <use xlink:href="#DejaVuSans-70" x="621.5625"/>
      <use xlink:href="#DejaVuSans-73" x="685.039062"/>
      <use xlink:href="#DejaVuSans-75" x="737.138672"/>
      <use xlink:href="#DejaVuSans-73" x="800.517578"/>
     </g>
    </g>
   </g>
  </g>
  <g id="axes_4">
   <g id="patch_19">
    <path d="M 57.6 615.168 
L 414.72 615.168 
L 414.72 458.631529 
L 57.6 458.631529 
z
" style="fill: #ffffff"/>
   </g>
   <g id="matplotlib.axis_7">
    <g id="xtick_16">
     <g id="line2d_64">
      <g>
       <use xlink:href="#m018567a269" x="73.832727" y="615.168" style="stroke: #000000; stroke-width: 0.8"/>
      </g>
     </g>
     <g id="text_48">
      <!-- 1 -->
      <g transform="translate(70.651477 629.766437) scale(0.1 -0.1)">
       <use xlink:href="#DejaVuSans-31"/>
      </g>
     </g>
    </g>
    <g id="xtick_17">
     <g id="line2d_65">
      <g>
       <use xlink:href="#m018567a269" x="109.905455" y="615.168" style="stroke: #000000; stroke-width: 0.8"/>
      </g>
     </g>
     <g id="text_49">
      <!-- 2 -->
      <g transform="translate(106.724205 629.766437) scale(0.1 -0.1)">
       <use xlink:href="#DejaVuSans-32"/>
      </g>
     </g>
    </g>
    <g id="xtick_18">
     <g id="line2d_66">
      <g>
       <use xlink:href="#m018567a269" x="145.978182" y="615.168" style="stroke: #000000; stroke-width: 0.8"/>
      </g>
     </g>
     <g id="text_50">
      <!-- 3 -->
      <g transform="translate(142.796932 629.766437) scale(0.1 -0.1)">
       <use xlink:href="#DejaVuSans-33"/>
      </g>
     </g>
    </g>
    <g id="xtick_19">
     <g id="line2d_67">
      <g>
       <use xlink:href="#m018567a269" x="182.050909" y="615.168" style="stroke: #000000; stroke-width: 0.8"/>
      </g>
     </g>
     <g id="text_51">
      <!-- 4 -->
      <g transform="translate(178.869659 629.766437) scale(0.1 -0.1)">
       <use xlink:href="#DejaVuSans-34"/>
      </g>
     </g>
    </g>
    <g id="xtick_20">
     <g id="line2d_68">
      <g>
       <use xlink:href="#m018567a269" x="326.341818" y="615.168" style="stroke: #000000; stroke-width: 0.8"/>
      </g>
     </g>
     <g id="text_52">
      <!-- 8 -->
      <g transform="translate(323.160568 629.766437) scale(0.1 -0.1)">
       <use xlink:href="#DejaVuSans-38"/>
      </g>
     </g>
    </g>
    <g id="xtick_21">
     <g id="line2d_69">
      <g>
       <use xlink:href="#m018567a269" x="398.487273" y="615.168" style="stroke: #000000; stroke-width: 0.8"/>
      </g>
     </g>
     <g id="text_53">
      <!-- 10 -->
      <g transform="translate(392.124773 629.766437) scale(0.1 -0.1)">
       <use xlink:href="#DejaVuSans-31"/>
       <use xlink:href="#DejaVuSans-30" x="63.623047"/>
      </g>
     </g>
    </g>
    <g id="text_54">
     <!-- Trotterisammude arv -->
     <g transform="translate(183.902969 643.444562) scale(0.1 -0.1)">
      <defs>
       <path id="DejaVuSans-54" d="M -19 4666 
L 3928 4666 
L 3928 4134 
L 2272 4134 
L 2272 0 
L 1638 0 
L 1638 4134 
L -19 4134 
L -19 4666 
z
" transform="scale(0.015625)"/>
      </defs>
      <use xlink:href="#DejaVuSans-54"/>
      <use xlink:href="#DejaVuSans-72" x="46.333984"/>
      <use xlink:href="#DejaVuSans-6f" x="85.197266"/>
      <use xlink:href="#DejaVuSans-74" x="146.378906"/>
      <use xlink:href="#DejaVuSans-74" x="185.587891"/>
      <use xlink:href="#DejaVuSans-65" x="224.796875"/>
      <use xlink:href="#DejaVuSans-72" x="286.320312"/>
      <use xlink:href="#DejaVuSans-69" x="327.433594"/>
      <use xlink:href="#DejaVuSans-73" x="355.216797"/>
      <use xlink:href="#DejaVuSans-61" x="407.316406"/>
      <use xlink:href="#DejaVuSans-6d" x="468.595703"/>
      <use xlink:href="#DejaVuSans-6d" x="566.007812"/>
      <use xlink:href="#DejaVuSans-75" x="663.419922"/>
      <use xlink:href="#DejaVuSans-64" x="726.798828"/>
      <use xlink:href="#DejaVuSans-65" x="790.275391"/>
      <use xlink:href="#DejaVuSans-20" x="851.798828"/>
      <use xlink:href="#DejaVuSans-61" x="883.585938"/>
      <use xlink:href="#DejaVuSans-72" x="944.865234"/>
      <use xlink:href="#DejaVuSans-76" x="985.978516"/>
     </g>
    </g>
   </g>
   <g id="matplotlib.axis_8">
    <g id="ytick_16">
     <g id="line2d_70">
      <g>
       <use xlink:href="#m064f5c6a36" x="57.6" y="599.87142" style="stroke: #000000; stroke-width: 0.8"/>
      </g>
     </g>
     <g id="text_55">
      <!-- 0.2 -->
      <g transform="translate(34.696875 603.670639) scale(0.1 -0.1)">
       <use xlink:href="#DejaVuSans-30"/>
       <use xlink:href="#DejaVuSans-2e" x="63.623047"/>
       <use xlink:href="#DejaVuSans-32" x="95.410156"/>
      </g>
     </g>
    </g>
    <g id="ytick_17">
     <g id="line2d_71">
      <g>
       <use xlink:href="#m064f5c6a36" x="57.6" y="576.104159" style="stroke: #000000; stroke-width: 0.8"/>
      </g>
     </g>
     <g id="text_56">
      <!-- 0.4 -->
      <g transform="translate(34.696875 579.903378) scale(0.1 -0.1)">
       <use xlink:href="#DejaVuSans-30"/>
       <use xlink:href="#DejaVuSans-2e" x="63.623047"/>
       <use xlink:href="#DejaVuSans-34" x="95.410156"/>
      </g>
     </g>
    </g>
    <g id="ytick_18">
     <g id="line2d_72">
      <g>
       <use xlink:href="#m064f5c6a36" x="57.6" y="552.336898" style="stroke: #000000; stroke-width: 0.8"/>
      </g>
     </g>
     <g id="text_57">
      <!-- 0.6 -->
      <g transform="translate(34.696875 556.136117) scale(0.1 -0.1)">
       <use xlink:href="#DejaVuSans-30"/>
       <use xlink:href="#DejaVuSans-2e" x="63.623047"/>
       <use xlink:href="#DejaVuSans-36" x="95.410156"/>
      </g>
     </g>
    </g>
    <g id="ytick_19">
     <g id="line2d_73">
      <g>
       <use xlink:href="#m064f5c6a36" x="57.6" y="528.569637" style="stroke: #000000; stroke-width: 0.8"/>
      </g>
     </g>
     <g id="text_58">
      <!-- 0.8 -->
      <g transform="translate(34.696875 532.368855) scale(0.1 -0.1)">
       <use xlink:href="#DejaVuSans-30"/>
       <use xlink:href="#DejaVuSans-2e" x="63.623047"/>
       <use xlink:href="#DejaVuSans-38" x="95.410156"/>
      </g>
     </g>
    </g>
    <g id="ytick_20">
     <g id="line2d_74">
      <g>
       <use xlink:href="#m064f5c6a36" x="57.6" y="504.802376" style="stroke: #000000; stroke-width: 0.8"/>
      </g>
     </g>
     <g id="text_59">
      <!-- 1.0 -->
      <g transform="translate(34.696875 508.601594) scale(0.1 -0.1)">
       <use xlink:href="#DejaVuSans-31"/>
       <use xlink:href="#DejaVuSans-2e" x="63.623047"/>
       <use xlink:href="#DejaVuSans-30" x="95.410156"/>
      </g>
     </g>
    </g>
    <g id="ytick_21">
     <g id="line2d_75">
      <g>
       <use xlink:href="#m064f5c6a36" x="57.6" y="481.035114" style="stroke: #000000; stroke-width: 0.8"/>
      </g>
     </g>
     <g id="text_60">
      <!-- 1.2 -->
      <g transform="translate(34.696875 484.834333) scale(0.1 -0.1)">
       <use xlink:href="#DejaVuSans-31"/>
       <use xlink:href="#DejaVuSans-2e" x="63.623047"/>
       <use xlink:href="#DejaVuSans-32" x="95.410156"/>
      </g>
     </g>
    </g>
    <g id="text_61">
     <!-- Väravae arv -->
     <g transform="translate(28.617187 566.88414) rotate(-90) scale(0.1 -0.1)">
      <defs>
       <path id="DejaVuSans-56" d="M 1831 0 
L 50 4666 
L 709 4666 
L 2188 738 
L 3669 4666 
L 4325 4666 
L 2547 0 
L 1831 0 
z
" transform="scale(0.015625)"/>
      </defs>
      <use xlink:href="#DejaVuSans-56"/>
      <use xlink:href="#DejaVuSans-e4" x="60.658203"/>
      <use xlink:href="#DejaVuSans-72" x="121.9375"/>
      <use xlink:href="#DejaVuSans-61" x="163.050781"/>
      <use xlink:href="#DejaVuSans-76" x="224.330078"/>
      <use xlink:href="#DejaVuSans-61" x="283.509766"/>
      <use xlink:href="#DejaVuSans-65" x="344.789062"/>
      <use xlink:href="#DejaVuSans-20" x="406.3125"/>
      <use xlink:href="#DejaVuSans-61" x="438.099609"/>
      <use xlink:href="#DejaVuSans-72" x="499.378906"/>
      <use xlink:href="#DejaVuSans-76" x="540.492188"/>
     </g>
    </g>
    <g id="text_62">
     <!-- 1e6 -->
     <g transform="translate(57.6 455.631529) scale(0.1 -0.1)">
      <use xlink:href="#DejaVuSans-31"/>
      <use xlink:href="#DejaVuSans-65" x="63.623047"/>
      <use xlink:href="#DejaVuSans-36" x="125.146484"/>
     </g>
    </g>
   </g>
   <g id="line2d_76">
    <path d="M 73.832727 608.052706 
L 109.905455 592.240941 
L 145.978182 576.429176 
L 182.050909 560.617412 
L 326.341818 497.370353 
L 398.487273 465.746824 
" clip-path="url(#p7b2497ea35)" style="fill: none; stroke: #1f77b4; stroke-width: 1.5; stroke-linecap: square"/>
   </g>
   <g id="patch_20">
    <path d="M 57.6 615.168 
L 57.6 458.631529 
" style="fill: none; stroke: #000000; stroke-width: 0.8; stroke-linejoin: miter; stroke-linecap: square"/>
   </g>
   <g id="patch_21">
    <path d="M 414.72 615.168 
L 414.72 458.631529 
" style="fill: none; stroke: #000000; stroke-width: 0.8; stroke-linejoin: miter; stroke-linecap: square"/>
   </g>
   <g id="patch_22">
    <path d="M 57.6 615.168 
L 414.72 615.168 
" style="fill: none; stroke: #000000; stroke-width: 0.8; stroke-linejoin: miter; stroke-linecap: square"/>
   </g>
   <g id="patch_23">
    <path d="M 57.6 458.631529 
L 414.72 458.631529 
" style="fill: none; stroke: #000000; stroke-width: 0.8; stroke-linejoin: miter; stroke-linecap: square"/>
   </g>
   <g id="legend_3">
    <g id="patch_24">
     <path d="M 64.6 481.309654 
L 160.489062 481.309654 
Q 162.489062 481.309654 162.489062 479.309654 
L 162.489062 465.631529 
Q 162.489062 463.631529 160.489062 463.631529 
L 64.6 463.631529 
Q 62.6 463.631529 62.6 465.631529 
L 62.6 479.309654 
Q 62.6 481.309654 64.6 481.309654 
z
" style="fill: #ffffff; opacity: 0.8; stroke: #cccccc; stroke-linejoin: miter"/>
    </g>
    <g id="line2d_77">
     <path d="M 66.6 471.729967 
L 76.6 471.729967 
L 86.6 471.729967 
" style="fill: none; stroke: #1f77b4; stroke-width: 1.5; stroke-linecap: square"/>
    </g>
    <g id="text_63">
     <!-- Väravate arv -->
     <g transform="translate(94.6 475.229967) scale(0.1 -0.1)">
      <use xlink:href="#DejaVuSans-56"/>
      <use xlink:href="#DejaVuSans-e4" x="60.658203"/>
      <use xlink:href="#DejaVuSans-72" x="121.9375"/>
      <use xlink:href="#DejaVuSans-61" x="163.050781"/>
      <use xlink:href="#DejaVuSans-76" x="224.330078"/>
      <use xlink:href="#DejaVuSans-61" x="283.509766"/>
      <use xlink:href="#DejaVuSans-74" x="344.789062"/>
      <use xlink:href="#DejaVuSans-65" x="383.998047"/>
      <use xlink:href="#DejaVuSans-20" x="445.521484"/>
      <use xlink:href="#DejaVuSans-61" x="477.308594"/>
      <use xlink:href="#DejaVuSans-72" x="538.587891"/>
      <use xlink:href="#DejaVuSans-76" x="579.701172"/>
     </g>
    </g>
   </g>
  </g>
  <g id="axes_5">
   <g id="matplotlib.axis_9">
    <g id="ytick_22">
     <g id="line2d_78">
      <defs>
       <path id="m4da726048d" d="M 0 0 
L 3.5 0 
" style="stroke: #000000; stroke-width: 0.8"/>
      </defs>
      <g>
       <use xlink:href="#m4da726048d" x="414.72" y="608.488591" style="stroke: #000000; stroke-width: 0.8"/>
      </g>
     </g>
     <g id="text_64">
      <!-- 0 -->
      <g transform="translate(421.72 612.28781) scale(0.1 -0.1)">
       <use xlink:href="#DejaVuSans-30"/>
      </g>
     </g>
    </g>
    <g id="ytick_23">
     <g id="line2d_79">
      <g>
       <use xlink:href="#m4da726048d" x="414.72" y="573.613347" style="stroke: #000000; stroke-width: 0.8"/>
      </g>
     </g>
     <g id="text_65">
      <!-- 5 -->
      <g transform="translate(421.72 577.412565) scale(0.1 -0.1)">
       <use xlink:href="#DejaVuSans-35"/>
      </g>
     </g>
    </g>
    <g id="ytick_24">
     <g id="line2d_80">
      <g>
       <use xlink:href="#m4da726048d" x="414.72" y="538.738102" style="stroke: #000000; stroke-width: 0.8"/>
      </g>
     </g>
     <g id="text_66">
      <!-- 10 -->
      <g transform="translate(421.72 542.537321) scale(0.1 -0.1)">
       <use xlink:href="#DejaVuSans-31"/>
       <use xlink:href="#DejaVuSans-30" x="63.623047"/>
      </g>
     </g>
    </g>
    <g id="ytick_25">
     <g id="line2d_81">
      <g>
       <use xlink:href="#m4da726048d" x="414.72" y="503.862857" style="stroke: #000000; stroke-width: 0.8"/>
      </g>
     </g>
     <g id="text_67">
      <!-- 15 -->
      <g transform="translate(421.72 507.662076) scale(0.1 -0.1)">
       <use xlink:href="#DejaVuSans-31"/>
       <use xlink:href="#DejaVuSans-35" x="63.623047"/>
      </g>
     </g>
    </g>
    <g id="ytick_26">
     <g id="line2d_82">
      <g>
       <use xlink:href="#m4da726048d" x="414.72" y="468.987613" style="stroke: #000000; stroke-width: 0.8"/>
      </g>
     </g>
     <g id="text_68">
      <!-- 20 -->
      <g transform="translate(421.72 472.786831) scale(0.1 -0.1)">
       <use xlink:href="#DejaVuSans-32"/>
       <use xlink:href="#DejaVuSans-30" x="63.623047"/>
      </g>
     </g>
    </g>
    <g id="text_69">
     <!-- Aeg (min) -->
     <g transform="translate(446.043438 561.402108) rotate(-90) scale(0.1 -0.1)">
      <use xlink:href="#DejaVuSans-41"/>
      <use xlink:href="#DejaVuSans-65" x="66.658203"/>
      <use xlink:href="#DejaVuSans-67" x="128.181641"/>
      <use xlink:href="#DejaVuSans-20" x="191.658203"/>
      <use xlink:href="#DejaVuSans-28" x="223.445312"/>
      <use xlink:href="#DejaVuSans-6d" x="262.458984"/>
      <use xlink:href="#DejaVuSans-69" x="359.871094"/>
      <use xlink:href="#DejaVuSans-6e" x="387.654297"/>
      <use xlink:href="#DejaVuSans-29" x="451.033203"/>
     </g>
    </g>
   </g>
   <g id="line2d_83">
    <path d="M 73.832727 607.296588 
L 109.905455 606.203191 
L 145.978182 605.128675 
L 182.050909 604.033001 
L 326.341818 599.705167 
L 398.487273 597.602375 
" clip-path="url(#p7b2497ea35)" style="fill: none; stroke-dasharray: 5.55,2.4; stroke-dashoffset: 0; stroke: #1f77b4; stroke-width: 1.5"/>
   </g>
   <g id="line2d_84">
    <path d="M 73.832727 606.960868 
L 109.905455 605.557882 
L 145.978182 604.205914 
L 182.050909 602.787527 
L 326.341818 597.262213 
L 398.487273 594.437953 
" clip-path="url(#p7b2497ea35)" style="fill: none; stroke-dasharray: 5.55,2.4; stroke-dashoffset: 0; stroke: #ff7f0e; stroke-width: 1.5"/>
   </g>
   <g id="line2d_85">
    <path d="M 73.832727 608.052706 
L 109.905455 606.951257 
L 145.978182 604.459445 
L 182.050909 599.652572 
L 326.341818 538.870496 
L 398.487273 465.746824 
" clip-path="url(#p7b2497ea35)" style="fill: none; stroke-dasharray: 5.55,2.4; stroke-dashoffset: 0; stroke: #2ca02c; stroke-width: 1.5"/>
   </g>
   <g id="patch_25">
    <path d="M 57.6 615.168 
L 57.6 458.631529 
" style="fill: none; stroke: #000000; stroke-width: 0.8; stroke-linejoin: miter; stroke-linecap: square"/>
   </g>
   <g id="patch_26">
    <path d="M 414.72 615.168 
L 414.72 458.631529 
" style="fill: none; stroke: #000000; stroke-width: 0.8; stroke-linejoin: miter; stroke-linecap: square"/>
   </g>
   <g id="patch_27">
    <path d="M 57.6 615.168 
L 414.72 615.168 
" style="fill: none; stroke: #000000; stroke-width: 0.8; stroke-linejoin: miter; stroke-linecap: square"/>
   </g>
   <g id="patch_28">
    <path d="M 57.6 458.631529 
L 414.72 458.631529 
" style="fill: none; stroke: #000000; stroke-width: 0.8; stroke-linejoin: miter; stroke-linecap: square"/>
   </g>
   <g id="legend_4">
    <g id="patch_29">
     <path d="M 272.512188 610.168 
L 407.72 610.168 
Q 409.72 610.168 409.72 608.168 
L 409.72 565.133625 
Q 409.72 563.133625 407.72 563.133625 
L 272.512188 563.133625 
Q 270.512188 563.133625 270.512188 565.133625 
L 270.512188 608.168 
Q 270.512188 610.168 272.512188 610.168 
z
" style="fill: #ffffff; opacity: 0.8; stroke: #cccccc; stroke-linejoin: miter"/>
    </g>
    <g id="line2d_86">
     <path d="M 274.512188 571.232062 
L 284.512188 571.232062 
L 294.512188 571.232062 
" style="fill: none; stroke-dasharray: 5.55,2.4; stroke-dashoffset: 0; stroke: #1f77b4; stroke-width: 1.5"/>
    </g>
    <g id="text_70">
     <!-- Koostamise aeg -->
     <g transform="translate(302.512188 574.732062) scale(0.1 -0.1)">
      <use xlink:href="#DejaVuSans-4b"/>
      <use xlink:href="#DejaVuSans-6f" x="60.576172"/>
      <use xlink:href="#DejaVuSans-6f" x="121.757812"/>
      <use xlink:href="#DejaVuSans-73" x="182.939453"/>
      <use xlink:href="#DejaVuSans-74" x="235.039062"/>
      <use xlink:href="#DejaVuSans-61" x="274.248047"/>
      <use xlink:href="#DejaVuSans-6d" x="335.527344"/>
      <use xlink:href="#DejaVuSans-69" x="432.939453"/>
      <use xlink:href="#DejaVuSans-73" x="460.722656"/>
      <use xlink:href="#DejaVuSans-65" x="512.822266"/>
      <use xlink:href="#DejaVuSans-20" x="574.345703"/>
      <use xlink:href="#DejaVuSans-61" x="606.132812"/>
      <use xlink:href="#DejaVuSans-65" x="667.412109"/>
      <use xlink:href="#DejaVuSans-67" x="728.935547"/>
     </g>
    </g>
    <g id="line2d_87">
     <path d="M 274.512188 585.910187 
L 284.512188 585.910187 
L 294.512188 585.910187 
" style="fill: none; stroke-dasharray: 5.55,2.4; stroke-dashoffset: 0; stroke: #ff7f0e; stroke-width: 1.5"/>
    </g>
    <g id="text_71">
     <!-- Transpileerimise aeg -->
     <g transform="translate(302.512188 589.410187) scale(0.1 -0.1)">
      <use xlink:href="#DejaVuSans-54"/>
      <use xlink:href="#DejaVuSans-72" x="46.333984"/>
      <use xlink:href="#DejaVuSans-61" x="87.447266"/>
      <use xlink:href="#DejaVuSans-6e" x="148.726562"/>
      <use xlink:href="#DejaVuSans-73" x="212.105469"/>
      <use xlink:href="#DejaVuSans-70" x="264.205078"/>
      <use xlink:href="#DejaVuSans-69" x="327.681641"/>
      <use xlink:href="#DejaVuSans-6c" x="355.464844"/>
      <use xlink:href="#DejaVuSans-65" x="383.248047"/>
      <use xlink:href="#DejaVuSans-65" x="444.771484"/>
      <use xlink:href="#DejaVuSans-72" x="506.294922"/>
      <use xlink:href="#DejaVuSans-69" x="547.408203"/>
      <use xlink:href="#DejaVuSans-6d" x="575.191406"/>
      <use xlink:href="#DejaVuSans-69" x="672.603516"/>
      <use xlink:href="#DejaVuSans-73" x="700.386719"/>
      <use xlink:href="#DejaVuSans-65" x="752.486328"/>
      <use xlink:href="#DejaVuSans-20" x="814.009766"/>
      <use xlink:href="#DejaVuSans-61" x="845.796875"/>
      <use xlink:href="#DejaVuSans-65" x="907.076172"/>
      <use xlink:href="#DejaVuSans-67" x="968.599609"/>
     </g>
    </g>
    <g id="line2d_88">
     <path d="M 274.512188 600.588312 
L 284.512188 600.588312 
L 294.512188 600.588312 
" style="fill: none; stroke-dasharray: 5.55,2.4; stroke-dashoffset: 0; stroke: #2ca02c; stroke-width: 1.5"/>
    </g>
    <g id="text_72">
     <!-- Käiguaeg -->
     <g transform="translate(302.512188 604.088312) scale(0.1 -0.1)">
      <use xlink:href="#DejaVuSans-4b"/>
      <use xlink:href="#DejaVuSans-e4" x="63.826172"/>
      <use xlink:href="#DejaVuSans-69" x="125.105469"/>
      <use xlink:href="#DejaVuSans-67" x="152.888672"/>
      <use xlink:href="#DejaVuSans-75" x="216.365234"/>
      <use xlink:href="#DejaVuSans-61" x="279.744141"/>
      <use xlink:href="#DejaVuSans-65" x="341.023438"/>
      <use xlink:href="#DejaVuSans-67" x="402.546875"/>
     </g>
    </g>
   </g>
  </g>
 </g>
 <defs>
  <clipPath id="pc7daa617ce">
   <rect x="57.6" y="82.944" width="357.12" height="156.536471"/>
  </clipPath>
  <clipPath id="p2c0fcef7e1">
   <rect x="57.6" y="270.787765" width="357.12" height="156.536471"/>
  </clipPath>
  <clipPath id="p122366ffcd">
   <rect x="193.3056" y="305.225788" width="207.1296" height="75.137506"/>
  </clipPath>
  <clipPath id="p7b2497ea35">
   <rect x="57.6" y="458.631529" width="357.12" height="156.536471"/>
  </clipPath>
 </defs>
</svg>
